<svg xmlns:dc="http://purl.org/dc/elements/1.1/" xmlns:cc="http://creativecommons.org/ns#" xmlns:rdf="http://www.w3.org/1999/02/22-rdf-syntax-ns#" xmlns:svg="http://www.w3.org/2000/svg" xmlns="http://www.w3.org/2000/svg" xmlns:sodipodi="http://sodipodi.sourceforge.net/DTD/sodipodi-0.dtd" xmlns:inkscape="http://www.inkscape.org/namespaces/inkscape" viewBox="0 0 511.99948 263.94" id="svg1016" sodipodi:docname="img.02.svg" inkscape:version="1.0.2 (e86c870879, 2021-01-15)" width="511.99948" height="263.94"><defs id="defs1020"/><sodipodi:namedview pagecolor="#ffffff" bordercolor="#666666" borderopacity="1" objecttolerance="10" gridtolerance="10" guidetolerance="10" inkscape:pageopacity="0" inkscape:pageshadow="2" inkscape:window-width="1920" inkscape:window-height="1016" id="namedview1018" showgrid="false" inkscape:zoom="1" inkscape:cx="255.79974" inkscape:cy="131.97" inkscape:window-x="0" inkscape:window-y="27" inkscape:window-maximized="1" inkscape:current-layer="svg1016" fit-margin-top="0" fit-margin-left="0" fit-margin-right="0" fit-margin-bottom="0"/><g id="g1253" transform="scale(0.73520891)"><path d="M0 0H696V359H0z" fill="none" id="path558"/><path d="M117.6 279.9 103 199.1 256.3 171l-28-148.7L575.6 9.9l-10.7 76.6 131-4.4.5 197.8z" fill="#f6f8fa" id="path560"/><path d="m509 252.2h-10.4v16.9H509z" fill="#e1e4e8" id="path562"/><path d="m503.7 259.7c1.4.0 2.6-1.1 2.6-2.5.0-1.4-1.1-2.5-2.6-2.5-1.4.0-2.6 1.1-2.6 2.5.1 1.4 1.2 2.5 2.6 2.5zm.4 6.7c1.4.0 2.6-1.1 2.6-2.5s-1.1-2.5-2.6-2.5c-1.4.0-2.6 1.1-2.6 2.5.1 1.4 1.2 2.5 2.6 2.5z" fill="#f6f8fa" id="path564"/><path d="m318.1 333.5c46.3.0 83.9-5.2 83.9-11.6.0-6.4-37.5-11.6-83.9-11.6s-83.9 5.2-83.9 11.6c0 6.4 37.6 11.6 83.9 11.6zM547.5 52.3H300.2v145.6h247.3z" fill="#e8eaee" id="path566"/><path d="m313.6 64.9c.9.0 1.7-.8 1.7-1.7.0-.9-.8-1.7-1.7-1.7s-1.7.8-1.7 1.7c0 1 .8 1.7 1.7 1.7zm20.1.0c.9.0 1.7-.8 1.7-1.7.0-.9-.8-1.7-1.7-1.7s-1.7.8-1.7 1.7c0 1 .7 1.7 1.7 1.7zm20 0c.9.0 1.7-.8 1.7-1.7.0-.9-.8-1.7-1.7-1.7s-1.7.8-1.7 1.7c0 1 .8 1.7 1.7 1.7zm20.1.0c.9.0 1.7-.8 1.7-1.7.0-.9-.8-1.7-1.7-1.7s-1.7.8-1.7 1.7c-.1 1 .7 1.7 1.7 1.7zm20 0c.9.0 1.7-.8 1.7-1.7.0-.9-.8-1.7-1.7-1.7s-1.7.8-1.7 1.7c0 1 .7 1.7 1.7 1.7zm20 0c.9.0 1.7-.8 1.7-1.7.0-.9-.8-1.7-1.7-1.7s-1.7.8-1.7 1.7c0 1 .8 1.7 1.7 1.7zm20.1.0c.9.0 1.7-.8 1.7-1.7.0-.9-.8-1.7-1.7-1.7s-1.7.8-1.7 1.7c0 1 .7 1.7 1.7 1.7zm20 0c.9.0 1.7-.8 1.7-1.7.0-.9-.8-1.7-1.7-1.7s-1.7.8-1.7 1.7c0 1 .8 1.7 1.7 1.7zm20 0c.9.0 1.7-.8 1.7-1.7.0-.9-.8-1.7-1.7-1.7s-1.7.8-1.7 1.7c0 1 .8 1.7 1.7 1.7zm20.1.0c.9.0 1.7-.8 1.7-1.7.0-.9-.8-1.7-1.7-1.7s-1.7.8-1.7 1.7c0 1 .7 1.7 1.7 1.7zm20 0c.9.0 1.7-.8 1.7-1.7.0-.9-.8-1.7-1.7-1.7-.9.0-1.7.8-1.7 1.7.0 1 .8 1.7 1.7 1.7zm20 0c.9.0 1.7-.8 1.7-1.7.0-.9-.8-1.7-1.7-1.7-.9.0-1.7.8-1.7 1.7.0 1 .8 1.7 1.7 1.7zM313.6 80.3c.9.0 1.7-.8 1.7-1.7s-.8-1.7-1.7-1.7-1.7.8-1.7 1.7.8 1.7 1.7 1.7zm20.1.0c.9.0 1.7-.8 1.7-1.7s-.8-1.7-1.7-1.7-1.7.8-1.7 1.7.7 1.7 1.7 1.7zm20 0c.9.0 1.7-.8 1.7-1.7s-.8-1.7-1.7-1.7-1.7.8-1.7 1.7.8 1.7 1.7 1.7zm20.1.0c.9.0 1.7-.8 1.7-1.7s-.8-1.7-1.7-1.7-1.7.8-1.7 1.7c-.1.9.7 1.7 1.7 1.7zm20 0c.9.0 1.7-.8 1.7-1.7s-.8-1.7-1.7-1.7-1.7.8-1.7 1.7.7 1.7 1.7 1.7zm20 0c.9.0 1.7-.8 1.7-1.7s-.8-1.7-1.7-1.7-1.7.8-1.7 1.7.8 1.7 1.7 1.7zm20.1.0c.9.0 1.7-.8 1.7-1.7s-.8-1.7-1.7-1.7-1.7.8-1.7 1.7.7 1.7 1.7 1.7zm20 0c.9.0 1.7-.8 1.7-1.7s-.8-1.7-1.7-1.7-1.7.8-1.7 1.7.8 1.7 1.7 1.7zm20 0c.9.0 1.7-.8 1.7-1.7s-.8-1.7-1.7-1.7-1.7.8-1.7 1.7.8 1.7 1.7 1.7zm20.1.0c.9.0 1.7-.8 1.7-1.7s-.8-1.7-1.7-1.7-1.7.8-1.7 1.7.7 1.7 1.7 1.7zm20 0c.9.0 1.7-.8 1.7-1.7s-.8-1.7-1.7-1.7c-.9.0-1.7.8-1.7 1.7s.8 1.7 1.7 1.7zm20 0c.9.0 1.7-.8 1.7-1.7s-.8-1.7-1.7-1.7c-.9.0-1.7.8-1.7 1.7s.8 1.7 1.7 1.7zM313.6 95.6c.9.0 1.7-.8 1.7-1.7s-.8-1.7-1.7-1.7-1.7.8-1.7 1.7c0 1 .8 1.7 1.7 1.7zm20.1.0c.9.0 1.7-.8 1.7-1.7s-.8-1.7-1.7-1.7-1.7.8-1.7 1.7c0 1 .7 1.7 1.7 1.7zm20 0c.9.0 1.7-.8 1.7-1.7s-.8-1.7-1.7-1.7-1.7.8-1.7 1.7c0 1 .8 1.7 1.7 1.7zm20.1.0c.9.0 1.7-.8 1.7-1.7s-.8-1.7-1.7-1.7-1.7.8-1.7 1.7c-.1 1 .7 1.7 1.7 1.7zm20 0c.9.0 1.7-.8 1.7-1.7s-.8-1.7-1.7-1.7-1.7.8-1.7 1.7c0 1 .7 1.7 1.7 1.7zm20 0c.9.0 1.7-.8 1.7-1.7s-.8-1.7-1.7-1.7-1.7.8-1.7 1.7c0 1 .8 1.7 1.7 1.7zm20.1.0c.9.0 1.7-.8 1.7-1.7s-.8-1.7-1.7-1.7-1.7.8-1.7 1.7c0 1 .7 1.7 1.7 1.7zm20 0c.9.0 1.7-.8 1.7-1.7s-.8-1.7-1.7-1.7-1.7.8-1.7 1.7c0 1 .8 1.7 1.7 1.7zm20 0c.9.0 1.7-.8 1.7-1.7s-.8-1.7-1.7-1.7-1.7.8-1.7 1.7c0 1 .8 1.7 1.7 1.7zm20.1.0c.9.0 1.7-.8 1.7-1.7s-.8-1.7-1.7-1.7-1.7.8-1.7 1.7c0 1 .7 1.7 1.7 1.7zm20 0c.9.0 1.7-.8 1.7-1.7s-.8-1.7-1.7-1.7c-.9.0-1.7.8-1.7 1.7.0 1 .8 1.7 1.7 1.7zm20 0c.9.0 1.7-.8 1.7-1.7s-.8-1.7-1.7-1.7c-.9.0-1.7.8-1.7 1.7.0 1 .8 1.7 1.7 1.7zM313.6 111c.9.0 1.7-.8 1.7-1.7s-.8-1.7-1.7-1.7-1.7.8-1.7 1.7.8 1.7 1.7 1.7zm20.1.0c.9.0 1.7-.8 1.7-1.7s-.8-1.7-1.7-1.7-1.7.8-1.7 1.7.7 1.7 1.7 1.7zm20 0c.9.0 1.7-.8 1.7-1.7s-.8-1.7-1.7-1.7-1.7.8-1.7 1.7.8 1.7 1.7 1.7zm20.1.0c.9.0 1.7-.8 1.7-1.7s-.8-1.7-1.7-1.7-1.7.8-1.7 1.7c-.1.9.7 1.7 1.7 1.7zm20 0c.9.0 1.7-.8 1.7-1.7s-.8-1.7-1.7-1.7-1.7.8-1.7 1.7.7 1.7 1.7 1.7zm20 0c.9.0 1.7-.8 1.7-1.7s-.8-1.7-1.7-1.7-1.7.8-1.7 1.7.8 1.7 1.7 1.7zm20.1.0c.9.0 1.7-.8 1.7-1.7s-.8-1.7-1.7-1.7-1.7.8-1.7 1.7.7 1.7 1.7 1.7zm20 0c.9.0 1.7-.8 1.7-1.7s-.8-1.7-1.7-1.7-1.7.8-1.7 1.7.8 1.7 1.7 1.7zm20 0c.9.0 1.7-.8 1.7-1.7s-.8-1.7-1.7-1.7-1.7.8-1.7 1.7.8 1.7 1.7 1.7zm20.1.0c.9.0 1.7-.8 1.7-1.7s-.8-1.7-1.7-1.7-1.7.8-1.7 1.7.7 1.7 1.7 1.7zm20 0c.9.0 1.7-.8 1.7-1.7s-.8-1.7-1.7-1.7c-.9.0-1.7.8-1.7 1.7s.8 1.7 1.7 1.7zm20 0c.9.0 1.7-.8 1.7-1.7s-.8-1.7-1.7-1.7c-.9.0-1.7.8-1.7 1.7s.8 1.7 1.7 1.7zm-220.4 15.3c.9.0 1.7-.8 1.7-1.7s-.8-1.7-1.7-1.7-1.7.8-1.7 1.7.8 1.7 1.7 1.7zm20.1.0c.9.0 1.7-.8 1.7-1.7s-.8-1.7-1.7-1.7-1.7.8-1.7 1.7.7 1.7 1.7 1.7zm20 0c.9.0 1.7-.8 1.7-1.7s-.8-1.7-1.7-1.7-1.7.8-1.7 1.7.8 1.7 1.7 1.7zm20.1.0c.9.0 1.7-.8 1.7-1.7s-.8-1.7-1.7-1.7-1.7.8-1.7 1.7.7 1.7 1.7 1.7zm20 0c.9.0 1.7-.8 1.7-1.7s-.8-1.7-1.7-1.7-1.7.8-1.7 1.7.7 1.7 1.7 1.7zm20 0c.9.0 1.7-.8 1.7-1.7s-.8-1.7-1.7-1.7-1.7.8-1.7 1.7.8 1.7 1.7 1.7zm20.1.0c.9.0 1.7-.8 1.7-1.7s-.8-1.7-1.7-1.7-1.7.8-1.7 1.7.7 1.7 1.7 1.7zm20 0c.9.0 1.7-.8 1.7-1.7s-.8-1.7-1.7-1.7-1.7.8-1.7 1.7.8 1.7 1.7 1.7zm20 0c.9.0 1.7-.8 1.7-1.7s-.8-1.7-1.7-1.7-1.7.8-1.7 1.7.8 1.7 1.7 1.7zm20.1.0c.9.0 1.7-.8 1.7-1.7s-.8-1.7-1.7-1.7-1.7.8-1.7 1.7.7 1.7 1.7 1.7zm20 0c.9.0 1.7-.8 1.7-1.7s-.8-1.7-1.7-1.7c-.9.0-1.7.8-1.7 1.7s.8 1.7 1.7 1.7zm20 0c.9.0 1.7-.8 1.7-1.7s-.8-1.7-1.7-1.7c-.9.0-1.7.8-1.7 1.7s.8 1.7 1.7 1.7zm-220.4 15.3c.9.0 1.7-.8 1.7-1.7.0-.9-.8-1.7-1.7-1.7s-1.7.8-1.7 1.7c0 .9.8 1.7 1.7 1.7zm20.1.0c.9.0 1.7-.8 1.7-1.7.0-.9-.8-1.7-1.7-1.7s-1.7.8-1.7 1.7c0 .9.7 1.7 1.7 1.7zm20 0c.9.0 1.7-.8 1.7-1.7.0-.9-.8-1.7-1.7-1.7s-1.7.8-1.7 1.7c0 .9.8 1.7 1.7 1.7zm20.1.0c.9.0 1.7-.8 1.7-1.7.0-.9-.8-1.7-1.7-1.7s-1.7.8-1.7 1.7c0 .9.7 1.7 1.7 1.7zm20 0c.9.0 1.7-.8 1.7-1.7.0-.9-.8-1.7-1.7-1.7s-1.7.8-1.7 1.7c0 .9.7 1.7 1.7 1.7zm20 0c.9.0 1.7-.8 1.7-1.7.0-.9-.8-1.7-1.7-1.7s-1.7.8-1.7 1.7c0 .9.8 1.7 1.7 1.7zm20.1.0c.9.0 1.7-.8 1.7-1.7.0-.9-.8-1.7-1.7-1.7s-1.7.8-1.7 1.7c0 .9.7 1.7 1.7 1.7zm20 0c.9.0 1.7-.8 1.7-1.7.0-.9-.8-1.7-1.7-1.7s-1.7.8-1.7 1.7c0 .9.8 1.7 1.7 1.7zm20 0c.9.0 1.7-.8 1.7-1.7.0-.9-.8-1.7-1.7-1.7s-1.7.8-1.7 1.7c0 .9.8 1.7 1.7 1.7zm20.1.0c.9.0 1.7-.8 1.7-1.7.0-.9-.8-1.7-1.7-1.7s-1.7.8-1.7 1.7c0 .9.7 1.7 1.7 1.7zm20 0c.9.0 1.7-.8 1.7-1.7.0-.9-.8-1.7-1.7-1.7-.9.0-1.7.8-1.7 1.7.0.9.8 1.7 1.7 1.7zm20 0c.9.0 1.7-.8 1.7-1.7.0-.9-.8-1.7-1.7-1.7-.9.0-1.7.8-1.7 1.7.0.9.8 1.7 1.7 1.7zM313.6 157c.9.0 1.7-.8 1.7-1.7.0-.9-.8-1.7-1.7-1.7s-1.7.8-1.7 1.7c0 .9.8 1.7 1.7 1.7zm20.1.0c.9.0 1.7-.8 1.7-1.7.0-.9-.8-1.7-1.7-1.7s-1.7.8-1.7 1.7c0 .9.7 1.7 1.7 1.7zm20 0c.9.0 1.7-.8 1.7-1.7.0-.9-.8-1.7-1.7-1.7s-1.7.8-1.7 1.7c0 .9.8 1.7 1.7 1.7zm20.1.0c.9.0 1.7-.8 1.7-1.7.0-.9-.8-1.7-1.7-1.7s-1.7.8-1.7 1.7c-.1.9.7 1.7 1.7 1.7zm20 0c.9.0 1.7-.8 1.7-1.7.0-.9-.8-1.7-1.7-1.7s-1.7.8-1.7 1.7c0 .9.7 1.7 1.7 1.7zm20 0c.9.0 1.7-.8 1.7-1.7.0-.9-.8-1.7-1.7-1.7s-1.7.8-1.7 1.7c0 .9.8 1.7 1.7 1.7zm20.1.0c.9.0 1.7-.8 1.7-1.7.0-.9-.8-1.7-1.7-1.7s-1.7.8-1.7 1.7c0 .9.7 1.7 1.7 1.7zm20 0c.9.0 1.7-.8 1.7-1.7.0-.9-.8-1.7-1.7-1.7s-1.7.8-1.7 1.7c0 .9.8 1.7 1.7 1.7zm20 0c.9.0 1.7-.8 1.7-1.7.0-.9-.8-1.7-1.7-1.7s-1.7.8-1.7 1.7c0 .9.8 1.7 1.7 1.7zm20.1.0c.9.0 1.7-.8 1.7-1.7.0-.9-.8-1.7-1.7-1.7s-1.7.8-1.7 1.7c0 .9.7 1.7 1.7 1.7zm20 0c.9.0 1.7-.8 1.7-1.7.0-.9-.8-1.7-1.7-1.7-.9.0-1.7.8-1.7 1.7.0.9.8 1.7 1.7 1.7zm20 0c.9.0 1.7-.8 1.7-1.7.0-.9-.8-1.7-1.7-1.7-.9.0-1.7.8-1.7 1.7.0.9.8 1.7 1.7 1.7zm-220.4 15.3c.9.0 1.7-.8 1.7-1.7.0-.9-.8-1.7-1.7-1.7s-1.7.8-1.7 1.7c0 .9.8 1.7 1.7 1.7zm20.1.0c.9.0 1.7-.8 1.7-1.7.0-.9-.8-1.7-1.7-1.7s-1.7.8-1.7 1.7c0 .9.7 1.7 1.7 1.7zm20 0c.9.0 1.7-.8 1.7-1.7.0-.9-.8-1.7-1.7-1.7s-1.7.8-1.7 1.7c0 .9.8 1.7 1.7 1.7zm20.1.0c.9.0 1.7-.8 1.7-1.7.0-.9-.8-1.7-1.7-1.7s-1.7.8-1.7 1.7c0 .9.7 1.7 1.7 1.7zm20 0c.9.0 1.7-.8 1.7-1.7.0-.9-.8-1.7-1.7-1.7s-1.7.8-1.7 1.7c0 .9.7 1.7 1.7 1.7zm20 0c.9.0 1.7-.8 1.7-1.7.0-.9-.8-1.7-1.7-1.7s-1.7.8-1.7 1.7c0 .9.8 1.7 1.7 1.7zm20.1.0c.9.0 1.7-.8 1.7-1.7.0-.9-.8-1.7-1.7-1.7s-1.7.8-1.7 1.7c0 .9.7 1.7 1.7 1.7zm20 0c.9.0 1.7-.8 1.7-1.7.0-.9-.8-1.7-1.7-1.7s-1.7.8-1.7 1.7c0 .9.8 1.7 1.7 1.7zm20 0c.9.0 1.7-.8 1.7-1.7.0-.9-.8-1.7-1.7-1.7s-1.7.8-1.7 1.7c0 .9.8 1.7 1.7 1.7zm20.1.0c.9.0 1.7-.8 1.7-1.7.0-.9-.8-1.7-1.7-1.7s-1.7.8-1.7 1.7c0 .9.7 1.7 1.7 1.7zm20 0c.9.0 1.7-.8 1.7-1.7.0-.9-.8-1.7-1.7-1.7-.9.0-1.7.8-1.7 1.7.0.9.8 1.7 1.7 1.7zm20 0c.9.0 1.7-.8 1.7-1.7.0-.9-.8-1.7-1.7-1.7-.9.0-1.7.8-1.7 1.7.0.9.8 1.7 1.7 1.7zm-220.4 15.4c.9.0 1.7-.8 1.7-1.7.0-.9-.8-1.7-1.7-1.7s-1.7.8-1.7 1.7c0 .9.8 1.7 1.7 1.7zm20.1.0c.9.0 1.7-.8 1.7-1.7.0-.9-.8-1.7-1.7-1.7s-1.7.8-1.7 1.7c0 .9.7 1.7 1.7 1.7zm20 0c.9.0 1.7-.8 1.7-1.7.0-.9-.8-1.7-1.7-1.7s-1.7.8-1.7 1.7c0 .9.8 1.7 1.7 1.7zm20.1.0c.9.0 1.7-.8 1.7-1.7.0-.9-.8-1.7-1.7-1.7s-1.7.8-1.7 1.7c0 .9.7 1.7 1.7 1.7zm20 0c.9.0 1.7-.8 1.7-1.7.0-.9-.8-1.7-1.7-1.7s-1.7.8-1.7 1.7c0 .9.7 1.7 1.7 1.7zm20 0c.9.0 1.7-.8 1.7-1.7.0-.9-.8-1.7-1.7-1.7s-1.7.8-1.7 1.7c0 .9.8 1.7 1.7 1.7zm20.1.0c.9.0 1.7-.8 1.7-1.7.0-.9-.8-1.7-1.7-1.7s-1.7.8-1.7 1.7c0 .9.7 1.7 1.7 1.7zm20 0c.9.0 1.7-.8 1.7-1.7.0-.9-.8-1.7-1.7-1.7s-1.7.8-1.7 1.7c0 .9.8 1.7 1.7 1.7zm20 0c.9.0 1.7-.8 1.7-1.7.0-.9-.8-1.7-1.7-1.7s-1.7.8-1.7 1.7c0 .9.8 1.7 1.7 1.7zm20.1.0c.9.0 1.7-.8 1.7-1.7.0-.9-.8-1.7-1.7-1.7s-1.7.8-1.7 1.7c0 .9.7 1.7 1.7 1.7zm20 0c.9.0 1.7-.8 1.7-1.7.0-.9-.8-1.7-1.7-1.7-.9.0-1.7.8-1.7 1.7.0.9.8 1.7 1.7 1.7zm20 0c.9.0 1.7-.8 1.7-1.7.0-.9-.8-1.7-1.7-1.7-.9.0-1.7.8-1.7 1.7.0.9.8 1.7 1.7 1.7z" fill="#d1d5da" id="path568"/><path d="M308.1 55.6V142h11.1V55.6zm5.7 7.1c-1 0-1.9-.6-2.2-1.5-.4-.9-.2-2 .5-2.6.7-.7 1.7-.9 2.6-.5.9.4 1.5 1.3 1.5 2.2.0.6-.3 1.3-.7 1.7-.5.5-1.1.7-1.7.7z" fill="#ffea7f" id="path570"/><path d="m313.6 59.3c-.7.0-1-.6-1-1.3l-.3-3.8c0-.7.6-1.3 1.3-1.3s1.3.6 1.3 1.3l-.3 3.8c0 .3-.1.6-.2.9-.2.2-.4.4-.8.4z" fill="#f6f8fa" id="path572"/><path d="M308.1 138.8V138l3.4-.1v.8zm0-4V134l3.4-.1v.8zm0-4V130l3.4-.1v.8zm0-4V126l5.5-.1v.8zm0-4V122l3.4-.1v.8zm0-4V118l3.4-.1v.8zm0-4V114l3.4-.1v.8zm0-4V110l3.4-.1v.8zm0-4V106l5.5-.1v.8zm0-4V102l3.4-.1v.8zm0-4V98l3.4-.1v.8zm0-4.1v-.8l3.4-.1v.8zm0-4v-.8l3.4-.1v.8zm0-4v-.8l5.5-.1v.8zm0-4v-.8l3.4-.1v.8zm0-4v-.8l3.4-.1v.8zm0-4v-.8l3.4-.1v.8zm0-4v-.8l3.4-.1v.8zm0-4v-.8l5.5-.1v.8z" fill="#ffab70" id="path574"/><path d="m340 63.2c5.8.0 8.8 5.6 8.8 9.1l-2.4.5c-1.5-3.8-6.2-4.9-7.9-3.3" fill="#2188ff" id="path576"/><path d="m339 67c5.8.0 8.5 2.1 8.5 5.6l-1.1.2c-1.5-3.8-6.2-4.9-7.9-3.3" fill="#0366d6" id="path578"/><path d="m335.6 122.9-5.2-.4.4-45V59.7h5.8v18.4l1.1 42.9c0 .8-.5 1.6-1.3 1.8-.3.1-.6.1-.8.1z" fill="#ffab70" id="path580"/><path d="m336.5 71.1c-.2.0-.3.1-.5.2-.2.1-.3.3-.4.4h-4.9v4.5h4.4c0 .4.1.8.1 1.1.0 5.1.4 10.1.6 15.2.3 7.2.1 14.6-2.2 21.4-.2.9-.7 1.6-1.4 2.2-.6.3-1.2.5-1.8.7l-.1.1v5.6l5.2.4c.5.0 1-.1 1.4-.5s.6-.9.6-1.4l-1-42.9z" fill="#fb8532" id="path582"/><path d="M340.6 62.4H326v9.3h14.6z" fill="#2188ff" id="path584"/><path d="m340.6 67.4c-1.7-.7-3.7-.6-5.4.1-.7.3-1.4.8-2.2 1.1-1.7.8-5.2.2-7.1 1.3v1.7h14.6v-4.2z" fill="#0366d6" id="path586"/><path d="m323.7 73.1h-3.3V60.8h3.3l1.1 5.9z" fill="#2188ff" id="path588"/><path d="m327.8 64.3h-5.7v4.5h5.7z" fill="#2188ff" id="path590"/><path d="m338.5 74.6c-.7.0-1-.6-1-1.3l-.3-3.8c0-.4.1-.7.4-1 .3-.3.6-.4 1-.4.7.0 1.3.6 1.3 1.3l-.3 3.8c0 .7-.5 1.3-1.1 1.4zm-10.6.0c-.7.0-1-.6-1-1.3l-.3-3.8c0-.7.6-1.3 1.3-1.4h.1c.5.0 1 .3 1.2.8.1.2.1.3.1.5l-.3 3.8c0 .8-.5 1.4-1.1 1.4z" fill="#f6f8fa" id="path592"/><path d="m323.8 60.8c-.5 3.5-1.2 11.4-3.3 12.3h3.3l.6-4.2.1-4.6z" fill="#0366d6" id="path594"/><path d="m365.1 118.8-5.3-.4.4-40.1V62.4h5.8v16.4l1 38.3c0 .8-.5 1.4-1.3 1.7z" fill="#ffab70" id="path596"/><path d="m366.1 78.8v-9.6h-1.4c-1-.2-2.1-.4-3.1-.5-.5.0-.9.0-1.4.1v7.5l2 .2 1.2-.1c-.4 3.5.1 7.6.2 9.5.3 7.2 1.5 14.4 1.3 21.7-.1 2.6-.5 5.6-2.7 6.9-.7.4-1.5.6-2.2.9v3.1l5.3.4c1 .1 1.9-.6 2-1.6v-.2c-.1.0-1.2-38.3-1.2-38.3z" fill="#fb8532" id="path598"/><path d="m374.7 73.1-12.4 1.5-11.7-1.5c-.6-2.1-.9-4.3-.9-6.6.1-2.6.4-5.1.9-7.6l12.2-1.3 11.9 1.3c.5 2.5.9 5 .9 7.5.0 2.3-.3 4.5-.9 6.7z" fill="#2188ff" id="path600"/><path d="m364.7 67.2c-1-.2-2.1-.4-3.1-.5-2.1-.1-4 1.1-6 2-1.6.7-4.1.5-5.7 1.4.1 1 .4 2 .6 3l11.7 1.5 12.4-1.5c.6-2.2.9-4.5.9-6.7.0-1.3-.1-2.6-.3-3.8-.9.6-1.8 1.3-2.6 2-2.1 1.9-5 2.8-7.9 2.6z" fill="#0366d6" id="path602"/><path d="m368.8 76.3c-.7.0-1-.6-1-1.3l-.3-3.8c0-.7.6-1.3 1.4-1.3.7.0 1.3.6 1.3 1.3l-.3 3.8c0 .7-.4 1.2-1.1 1.3zm-11.3.0c-.7.0-1-.6-1-1.3l-.3-3.8c0-.7.6-1.3 1.4-1.3.4.0.7.1.9.4.3.2.4.6.4.9l-.3 3.8c0 .7-.4 1.2-1.1 1.3z" fill="#f6f8fa" id="path604"/><path d="m459.8 59.7 3.9.2v-3.8l-4 .2c-.4-1.3-1.2-2.4-2.3-3.2-2.2-1.6-5.3-1.6-7.5.1-1.1.8-1.8 2-2.2 3.3l-4.4-.3v3.9l4.4-.3c.5 1.7 1.7 3.1 3.3 3.9v33.7c-2.1 1.1-3.4 3.3-3.4 5.7.0 2.5 1.5 5.4 4.3 5.7.3.0-1.1-7.3-1.1-7.3l6.5-.1s-1.5 7.3-1.2 7.2c2.7-.9 4.9-2.6 4.9-5.6.0-1.3-.4-2.6-1.2-3.7-.8-1.1-1.8-1.9-3-2.4V63.4c1.6-.8 2.6-2.1 3-3.7zm-5.9.6c-.9.0-1.6-.5-2-1.3-.4-1.1.1-2.3 1.1-2.7.1-.1.3-.1.4-.1.8-.2 1.7.2 2.2.9.2.3.4.8.4 1.2.0.6-.2 1.1-.6 1.5-.4.3-.9.5-1.5.5z" fill="#79b8ff" id="path606"/><path d="m451.8 58.2c-.3-.6-.1-1.3.3-1.9.4-.6 1.1-.9 1.9-.9.7.0 1.4.3 1.9.9.4.5.5 1.2.3 1.8H456c0-.5-.2-1.1-.6-1.5-.8-.8-2.1-.8-2.9.0-.4.6-.6 1.1-.7 1.6z" fill="#2188ff" id="path608"/><path d="m453.9 59.3c-.7.0-1-.6-1-1.3l-.3-3.8c0-.5.3-1 .8-1.2.2-.1.3-.1.5-.1.4.0.7.1 1 .4s.4.6.4.9L455 58c0 .3-.1.6-.3.9-.2.2-.5.3-.8.4z" fill="#f6f8fa" id="path610"/><path d="m451.2 75.6v3.8l5.8-3.6v-3.4zm.9 33.1c.3.0-1.1-7.3-1.1-7.3l6.5-.1s-1.5 7.3-1.2 7.2c2.7-.9 4.9-2.6 4.9-5.6.0-1.3-.4-2.6-1.2-3.7-.8-1.1-1.8-1.9-3-2.4V78.5l-5.8 4.1v14.7c-2.1 1.1-3.4 3.3-3.4 5.7.0 2.6 1.5 5.5 4.3 5.7z" fill="#2188ff" id="path612"/><path d="m457 97c-.2-2.8-.3-5.6-.4-8.4l-.1-4.2v-4.2c0-2.8-.1-5.6.0-8.4.1-2.8.0-5.6.1-8.4v-.3l.2-.1c1.3-.7 2.3-1.9 2.8-3.4l.1-.2h.2c1.3.2 2.6.3 3.9.5V60l-3.9-.2c-.4 1.6-1.5 2.9-2.9 3.8z" fill="#2188ff" id="path614"/><path d="m440.1 58.8 2.4.2v-3.2l-2.4.2c-.3-1.1-1-2-1.9-2.7-1.9-1.4-4.4-1.3-6.2.1-.9.7-1.5 1.6-1.8 2.7l-2.5-.2v3.2l2.5-.2c.4 1.4 1.4 2.6 2.8 3.2V91c-1.7.9-2.8 2.8-2.8 4.7.0 2.1 1.2 4.5 3.6 4.8.2.0-.9-6.1-.9-6.1l5.4-.1s-1.3 6.1-1 6c2.3-.7 4.1-2.2 4.1-4.6.0-1.1-.3-2.2-1-3.1-.6-.9-1.5-1.6-2.5-2V61.9c1-.7 1.9-1.8 2.2-3.1zm-4.9.6c-.7.0-1.3-.4-1.6-1.1-.3-.6-.1-1.4.4-1.9.7-.7 1.8-.7 2.5.0.3.3.5.8.5 1.2.0.7-.4 1.3-1.1 1.6-.3.1-.5.2-.7.2z" fill="#79b8ff" id="path616"/><path d="m433.4 57.6c-.3-.5-.2-1.1.2-1.6s1-.8 1.6-.8 1.2.3 1.6.8c.4.5.4 1.1.2 1.6h-.1c0-.5-.2-.9-.5-1.2-.7-.6-1.7-.6-2.4.0-.3.3-.5.8-.6 1.2z" fill="#2188ff" id="path618"/><path d="m435.2 59c-.7.0-1-.6-1-1.3l-.3-3.8c0-.7.6-1.3 1.3-1.3s1.3.6 1.3 1.3l-.3 3.8c.1.6-.4 1.2-1 1.3z" fill="#f6f8fa" id="path620"/><path d="m432.9 72.1v3.2l4.8-3v-2.8zm.8 28.4c.2.0-.9-6.1-.9-6.1l5.4-.1s-1.3 6.1-1 6c2.3-.7 4.1-2.2 4.1-4.6.0-1.1-.3-2.2-1-3.1-.6-.9-1.5-1.6-2.5-2v-16l-4.8 3.5v13c-1.7.9-2.8 2.8-2.8 4.7-.1 2 1.1 4.4 3.5 4.7z" fill="#2188ff" id="path622"/><path d="m437.7 90.7c-.2-2.4-.3-4.8-.4-7.2l-.1-3.6v-3.6c0-2.4-.1-4.8.0-7.2s0-4.8.1-7.2v-.3l.2-.1c1.1-.6 1.9-1.6 2.3-2.8l.1-.2h.2c.8.1 1.6.3 2.4.5l-2.4-.2c-.4 1.3-1.2 2.5-2.4 3.2z" fill="#2188ff" id="path624"/><path d="m418.2 58.9 2.7.2v-2.7l-2.8.2c-.3-.9-.8-1.7-1.6-2.2-1.9-1.4-4.7-.9-6 1-.3.4-.5.8-.6 1.3l-3.1-.2v2.7l3.1-.2c.3 1.2 1.2 2.1 2.3 2.7v24.7c-.7.4-1.3.9-1.7 1.6-.4.7-.6 1.5-.6 2.3.0 1.7 1 3.7 3 4 .2.0-.8-5.1-.8-5.1l4.5-.1s-1 5.1-.9 5c1.9-.6 3.4-1.8 3.4-3.8.0-.9-.3-1.8-.8-2.5s-1.3-1.3-2.1-1.6V61.5c1-.6 1.7-1.5 2-2.6zm-4 .5c-.6.0-1.1-.4-1.3-.9-.3-.7.0-1.6.8-1.9.1.0.2-.1.3-.1.6-.1 1.2.1 1.5.6.4.6.3 1.3-.2 1.8-.4.3-.8.5-1.1.5z" fill="#79b8ff" id="path626"/><path d="m412.7 57.9c-.3-.4-.2-1 .1-1.4.6-.8 1.7-.9 2.4-.4.1.1.3.2.4.4.3.4.3.9.1 1.4h-.1c-.1-.8-.7-1.4-1.5-1.3s-1.3.6-1.4 1.3z" fill="#2188ff" id="path628"/><path d="m414.1 59.3c-.7.0-1-.6-1-1.3l-.3-3.8c0-.4.1-.7.4-.9.3-.3.6-.4.9-.4.7.0 1.3.6 1.3 1.3l-.3 3.8c.1.6-.4 1.2-1 1.3z" fill="#f6f8fa" id="path630"/><path d="M412 70.3V73l4-2.5v-2.4zm.9 23.9c.2.0-.8-5.1-.8-5.1l4.5-.1s-1 5.1-.9 5c1.9-.6 3.4-1.8 3.4-3.8.0-.9-.3-1.8-.8-2.5s-1.3-1.3-2.1-1.6V72l-4 2.8v11.5c-1.4.8-2.3 2.3-2.3 3.9.0 1.8 1 3.8 3 4z" fill="#2188ff" id="path632"/><path d="M416.2 86.1C416 84.1 415.9 82 415.8 80l-.1-3.1v-3.1c0-2-.1-4.1.0-6.1s0-4.1.1-6.1v-.3l.2-.1c.9-.5 1.6-1.3 1.9-2.2l.1-.2h.2c.9.1 1.8.3 2.7.4v.1l-2.7-.2c-.3 1.1-1 2-2 2.6z" fill="#2188ff" id="path634"/><path d="m395 152c-.2-3.5 4.7-20.4-1.5-20.4-8.6.2-2.6 17.1-2.6 20.9s-3.1 2.7-2.9 6.4h10.8c-.5-3.3-3.6-3.5-3.8-6.9zm-2.2-14.2c-.7.0-1.4-.4-1.7-1.1s-.1-1.5.4-2c.7-.7 1.9-.7 2.6.0.5.5.7 1.3.4 2-.3.6-.9 1.1-1.7 1.1z" fill="#ffab70" id="path636"/><path d="m398.7 158h-10.8v3.8h10.8z" fill="#ffea7f" id="path638"/><path d="m398.4 172.8c-.6-.1-.7-.5-1.2-1l-.6 1.1c0 .1-.1.2-.2.2-.2.1-.4-.1-.5-.3l-.8-1.3c-.1.7-.5 1.4-1.1 1.9l-.8-2c-.3.7-.7 1.5-1.1 2.1-.5-.8-.8-1.8-.9-2.8-.5.7-.9 1.5-1.2 2.3-.5-.4-.8-1-.9-1.6-.3.8-.3 1.3-1.1 1.4v-11.5h10.4c0 .1.2 10.5.0 11.5z" fill="#959da5" id="path640"/><path d="m392.9 136.2c-.7.0-1-.6-1-1.3l-.3-3.8c0-.4.1-.7.4-.9.5-.5 1.4-.5 1.9.0.3.3.4.6.4.9l-.3 3.8c0 .7-.5 1.2-1.1 1.3z" fill="#f6f8fa" id="path642"/><path d="m395.1 151.6c-.1-2 1.5-8.4 1.7-13.5-.6 1.7-.6 4.5-1 5.8-.6 2.4-1.8 4.6-3.5 6.4-.5.5-1 1.1-1.3 1.7v.7c0 .1.0.2.1.3.2.3.5.6.9.8.8.5 1.7 1 2.6 1.3.8.4 1.6.6 2.4.6-.8-1-1.8-1.8-1.9-4.1z" fill="#fb8532" id="path644"/><path d="m414.8 151.9c-.2-3.5 4.7-20.4-1.5-20.4-8.6.2-2.6 17.1-2.6 20.9s-2.1 2.7-1.9 6.4h8.8c-.3-3.3-2.6-3.5-2.8-6.9zm-2.2-14.2c-.7.0-1.4-.4-1.7-1.1-.4-.9.1-2 1-2.4.1.0.2-.1.3-.1 1-.2 2 .5 2.1 1.4.1.4.0.7-.1 1-.1.8-.8 1.2-1.6 1.2z" fill="#ffab70" id="path646"/><path d="m417.5 157.9h-8.8v3.8h8.8z" fill="#ffea7f" id="path648"/><path d="m417.3 172.8c-.5-.1-.6-.5-1-1l-.5 1.2c0 .1-.1.2-.2.2-.2.1-.3-.1-.4-.3l-.7-1.3c-.1.7-.4 1.4-.9 1.9l-.6-2c-.2.7-.5 1.4-.9 2.1-.4-.9-.6-1.8-.7-2.8-.4.7-.7 1.5-1 2.3-.4-.5-.6-1-.7-1.6-.2.8-.2 1.3-.9 1.4v-11.5h8.5c.1.0.1 10.3.0 11.4z" fill="#959da5" id="path650"/><path d="m412.6 136.1c-.7.0-1-.6-1-1.3l-.3-3.8c0-.7.6-1.3 1.3-1.3s1.3.6 1.3 1.3l-.3 3.8c.2.7-.3 1.3-1 1.3z" fill="#f6f8fa" id="path652"/><path d="m414.8 151.9c-.1-2 1.5-8.4 1.7-13.5-.6 1.7-.6 4.5-1 5.8-.6 2.4-1.8 4.6-3.5 6.4-.5.5-1 1.1-1.3 1.7v.7c0 .1.0.2.1.3.2.3.5.6.9.8.8.5 1.7 1 2.6 1.3.7.4 1.6.6 2.4.6-.8-1-1.7-1.9-1.9-4.1z" fill="#fb8532" id="path654"/><path d="m434.1 130.9c-1-.1-2 .3-2.7.9-.7.7-1.2 1.6-1.2 2.6l1.4 18.2h5l1.4-18.2c-.1-1.5-1-2.8-2.5-3.4-.4-.1-.9-.1-1.4-.1zm.1 5.7c-.7.0-1.3-.4-1.5-1-.3-.6-.1-1.3.4-1.8.6-.6 1.7-.6 2.3.0.3.3.5.7.5 1.1s-.2.9-.5 1.2c-.4.4-.8.5-1.2.5z" fill="#ffab70" id="path656"/><path d="m436.6 152.7 7.4 15.6h-20.3l7.8-15.6z" fill="#c8e1ff" id="path658"/><path d="m434.2 135.5c-.7.0-1-.6-1-1.3l-.3-3.8c0-.4.1-.7.4-.9.5-.5 1.4-.5 1.9.0.3.2.4.6.4.9l-.3 3.8c0 .6-.5 1.2-1.1 1.3z" fill="#f6f8fa" id="path660"/><path d="m431.6 152.7h5l1.1-14.7c-.7 2.6-1.3 5.3-3.1 7.4-.6.7-2.2 2-3.4 3.3z" fill="#fb8532" id="path662"/><path d="m439 157.6c-1.4.3-2.6 1.2-3.4 2.3-.6.9-.8 2.1-1.7 2.7-1.9 1.5-4.8-.4-7 .6-.3.1-.6.3-.9.4l-2.3 4.6H444zm94.7-40c-2.6.0-5.1.8-7.2 2.2s-3.8 3.4-4.8 5.8c-2 4.8-.9 10.4 2.8 14.1 1.8 1.8 4.1 3 6.6 3.5s5.1.2 7.5-.7c2.4-1 4.4-2.6 5.8-4.8a13 13 0 002.2-7.2c0-3.4-1.4-6.7-3.8-9.2-2.4-2.4-5.7-3.7-9.1-3.7zm.5 20.2c-1.5.1-3-.3-4.2-1-3.6-2.1-4.7-6.7-2.7-10.2l.9-1.2c1-1.1 2.3-1.9 3.7-2.3 1.4-.4 3-.3 4.4.2s2.6 1.4 3.5 2.6c2.2 2.9 2 6.8-.4 9.5-1.3 1.4-3.2 2.3-5.2 2.4z" fill="#79b8ff" id="path664"/><path d="m533.8 121.9c-1.6.0-3.2.5-4.6 1.4s-2.4 2.2-3 3.7c-1.3 3.1-.6 6.6 1.8 8.9 3.2 3.2 8.4 3.2 11.7.0.4-.4.7-.8 1-1.2 2.2-3.3 1.7-7.6-1-10.3-1.6-1.6-3.7-2.5-5.9-2.5zm0 14.8c-1.3.0-2.6-.4-3.7-1.1-3-2-3.8-6.1-1.8-9.1.2-.4.5-.7.8-1 2.6-2.6 6.8-2.6 9.3.0.3.3.6.6.8 1 1.7 2.6 1.4 6.1-.8 8.3-1.1 1.2-2.8 1.9-4.6 1.9z" fill="#f6f8fa" id="path666"/><path d="m533.9 126.4c-.7.0-1-.6-1-1.3l-.3-3.8c0-.5.3-1 .8-1.2.2-.1.3-.1.5-.1.7.0 1.3.6 1.3 1.3l-.3 3.8c.1.7-.3 1.3-1 1.3z" fill="#f6f8fa" id="path668"/><path d="m533.6 150.2c-1.8.0-3.6.5-5.2 1.6-1.5 1-2.7 2.5-3.4 4.2-.7 1.7-.9 3.6-.5 5.4s1.2 3.5 2.5 4.8c2.7 2.7 6.7 3.4 10.1 2 1.7-.7 3.2-1.9 4.2-3.4 2.5-3.7 2-8.6-1.2-11.7-1.7-2-4-2.9-6.5-2.9zm.4 14.5c-1.1.1-2.1-.2-3.1-.7-.9-.5-1.7-1.3-2.1-2.3-.9-2-.6-4.3.8-5.9 1.5-1.6 3.8-2.2 5.8-1.5 2.1.7 3.5 2.6 3.6 4.8.1 1.4-.4 2.8-1.4 3.9-.8.9-2.2 1.6-3.6 1.7z" fill="#79b8ff" id="path670"/><path d="m533.7 153.2c-2.4.0-4.5 1.4-5.4 3.6s-.4 4.7 1.3 6.4c.8.8 1.9 1.4 3 1.6s2.3.1 3.4-.3 2-1.2 2.6-2.2c1.8-2.7 1.1-6.3-1.6-8.2-.3-.2-.7-.4-1-.6-.7-.1-1.5-.3-2.3-.3zm0 10.6c-1.9.0-3.6-1.1-4.4-2.9-.4-.9-.5-1.8-.3-2.7.2-.9.6-1.8 1.3-2.4 1.4-1.4 3.4-1.8 5.2-1 2.4 1 3.6 3.7 2.6 6.2-.5 1.2-1.4 2.1-2.6 2.6-.5.1-1.2.2-1.8.2z" fill="#f6f8fa" id="path672"/><path d="m533.8 156.9c-.7.0-1-.6-1-1.3l-.3-3.8c0-.7.6-1.3 1.3-1.3.5.0 1 .3 1.2.8.1.2.1.3.1.5l-.3 3.8c.2.6-.3 1.2-1 1.3z" fill="#f6f8fa" id="path674"/><path d="m460 182.3h-1.4v5.7h1.4zm32.7 1.1-1-.9-3.8 4.2 1 .9z" fill="#ffab70" id="path676"/><path d="m497.7 180.4h-45.3c.7 1.6 1.1 3.2 1.2 4.9-.1 1.6-.5 3.1-1.2 4.5h45.3c-.8-1.4-1.2-3-1.2-4.5.1-1.7.5-3.4 1.2-4.9zm-38.4 7.4c-.5.0-1-.2-1.5-.4-1.2-.8-1.5-2.4-.7-3.7.1-.1.2-.3.3-.4.8-.8 1.9-1 2.9-.6s1.6 1.4 1.6 2.4c0 .7-.3 1.4-.8 1.9s-1.1.8-1.8.8zm19-1.2h-7.7c-.4.0-.8-.1-1.1-.4-.1-.1-.3-.3-.3-.5-.3-.6-.1-1.2.3-1.7.3-.3.7-.4 1.1-.4h7.7c.4.0.8.1 1.1.4.6.5.6 1.5.1 2.1l-.1.1c-.3.2-.7.4-1.1.4zm11.7 1.2c-1.1.0-2-.6-2.4-1.6s-.2-2.1.6-2.9c1-1 2.7-1 3.8.0.1.1.2.2.3.4.7 1 .6 2.4-.3 3.3-.7.5-1.3.8-2 .8z" fill="#79b8ff" id="path678"/><path d="m499.4 178.5h-49.3v2.7h49.3zm0 10.4h-49.3v2.7h49.3z" fill="#d1d5da" id="path680"/><path d="m475.2 185.7c-.7.0-1-.6-1-1.3l-.3-3.8c0-.7.6-1.3 1.3-1.3.4.0.7.1.9.4.3.2.4.6.4.9l-.3 3.8c.1.7-.4 1.3-1 1.3zM529.5 77.3h-50.9v1.6h50.9z" fill="#f6f8fa" id="path682"/><path d="m484.6 79.6h-1.8v25h1.8z" fill="#c8e1ff" id="path684"/><path d="m485.8 78.3c-.5-1-.7-2.1-.7-3.3h-2.4c.1 1.1-.2 2.3-.8 3.3h-1.1v2h5.9v-2z" fill="#f66a0a" id="path686"/><path d="m484 56.8c.9.0 1.8.4 2.4 1 .6.6 1 1.5 1 2.4v14.9h-6.9V60.3c0-.9.4-1.8 1-2.4.7-.7 1.6-1.1 2.5-1.1z" fill="#ffab70" id="path688"/><path d="m487.2 58.9c-.4.7-.7 1.5-.9 2.2h-1.4v10.5c-.4.7-1 1.3-1.6 1.8v-12H482V74c-.5.1-1 .3-1.5.5v.8h6.9v-15c.1-.5.0-1-.2-1.4z" fill="#f66a0a" id="path690"/><path d="m479 74.8c-.7.0-1-.5-1-1.2l-.3-3.5c0-.7.5-1.2 1.2-1.2s1.2.5 1.2 1.2l-.3 3.5c.2.6-.2 1.1-.8 1.2zm50.4 5.1c-.7.0-1-.5-1-1.2l-.3-3.5c0-.7.5-1.2 1.2-1.2s1.2.5 1.2 1.2l-.3 3.5c.2.6-.2 1.1-.8 1.2z" fill="#f6f8fa" id="path692"/><path d="m494.7 79.6h-1.8v25h1.8z" fill="#c8e1ff" id="path694"/><path d="m495.9 78.3c-.5-1-.7-2.1-.7-3.3h-2.4c.1 1.1-.2 2.3-.8 3.3h-1.1v2h5.9v-2z" fill="#f66a0a" id="path696"/><path d="m494.1 56.8c.9.0 1.8.4 2.4 1 .6.6 1 1.5 1 2.4v14.9h-6.9V60.3c0-.9.4-1.8 1-2.4.7-.7 1.6-1.1 2.5-1.1z" fill="#ffab70" id="path698"/><path d="m497.3 58.9c-.4.7-.7 1.5-.9 2.2H495v10.5c-.4.7-1 1.3-1.6 1.8v-12h-1.3V74c-.5.1-1 .3-1.5.5v.8h6.9v-15c.1-.5.0-1-.2-1.4z" fill="#f66a0a" id="path700"/><path d="m489.1 79.9c-.7.0-1-.5-1-1.2l-.3-3.5c0-.7.6-1.2 1.2-1.2.7.0 1.2.5 1.2 1.2l-.3 3.5c.2.6-.2 1.1-.8 1.2z" fill="#f6f8fa" id="path702"/><path d="M504.8 79.6H503v25h1.8z" fill="#c8e1ff" id="path704"/><path d="m506 78.3c-.5-1-.7-2.1-.7-3.3h-2.4c.1 1.1-.2 2.3-.8 3.3H501v2h5.9v-2z" fill="#f66a0a" id="path706"/><path d="m504.2 56.8c.9.0 1.8.4 2.4 1 .6.6 1 1.5 1 2.4v14.9h-6.9V60.3c0-.9.4-1.8 1-2.4.7-.7 1.6-1.1 2.5-1.1z" fill="#ffab70" id="path708"/><path d="m507.4 58.9c-.4.7-.7 1.5-.9 2.2h-1.4v10.5c-.4.7-1 1.3-1.6 1.8v-12h-1.3V74c-.5.1-1 .3-1.5.5v.8h6.9v-15c0-.5-.1-1-.2-1.4z" fill="#f66a0a" id="path710"/><path d="m499.2 79.9c-.7.0-.9-.5-.9-1.2L498 75.2c0-.7.5-1.2 1.2-1.2s1.2.5 1.2 1.2l-.3 3.5c.2.6-.3 1.1-.9 1.2z" fill="#f6f8fa" id="path712"/><path d="m514.8 100.8h-1.6l-.1-21.2h1.8z" fill="#c8e1ff" id="path714"/><path d="m516.1 78.3c-.5-1-.7-2.1-.7-3.3H513c.1 1.1-.2 2.3-.8 3.3H511v2h5.9v-2z" fill="#f66a0a" id="path716"/><path d="m514.3 56.8c.9.0 1.8.4 2.4 1s1 1.5 1 2.4v14.9h-6.9V60.3c0-.9.4-1.8 1-2.4.7-.7 1.6-1.1 2.5-1.1z" fill="#ffab70" id="path718"/><path d="m517.5 58.9c-.4.7-.7 1.5-.9 2.2h-1.4v10.5c-.4.7-1 1.3-1.6 1.8v-12h-1.3V74c-.5.1-1 .3-1.5.5v.8h6.9v-15c.1-.5.0-1-.2-1.4z" fill="#f66a0a" id="path720"/><path d="m509.3 79.9c-.7.0-.9-.5-.9-1.2l-.3-3.5c0-.7.5-1.2 1.2-1.2s1.2.5 1.2 1.2l-.3 3.5c.2.6-.3 1.1-.9 1.2z" fill="#f6f8fa" id="path722"/><path d="m525 79.6h-1.8v14.6h1.8z" fill="#c8e1ff" id="path724"/><path d="m526.2 78.3c-.5-1-.7-2.1-.7-3.3H523c.1 1.1-.2 2.3-.8 3.3h-1.1v2h5.9v-2z" fill="#f66a0a" id="path726"/><path d="m524.4 56.8c.9.0 1.8.4 2.4 1s1 1.5 1 2.4V75.1H521V60.3c0-.9.4-1.8 1-2.4.6-.7 1.5-1.1 2.4-1.1z" fill="#ffab70" id="path728"/><path d="m527.5 58.9c-.4.7-.7 1.5-.8 2.2h-1.4v10.5c-.4.7-1 1.3-1.6 1.8v-12h-1.3V74c-.5.1-1 .3-1.5.5v.8h6.9v-15c0-.5-.1-1-.3-1.4z" fill="#f66a0a" id="path730"/><path d="m519.4 79.9c-.7.0-.9-.5-.9-1.2l-.3-3.5c0-.7.6-1.2 1.2-1.2.3.0.6.1.8.4.2.2.4.5.4.9l-.3 3.5c.1.5-.3 1-.9 1.1z" fill="#f6f8fa" id="path732"/><path d="m325.9 67.2h-1.6v1.5h1.6z" fill="#0366d6" id="path734"/><path d="M486.7 79.5 480.8 79v-.7h5.9zm10 0-5.9-.5v-.7h5.9zm10.1.0-5.9-.5v-.7h5.9zm10.1.0L511 79v-.7h5.9zm10.2.0-5.9-.5v-.7h5.9z" fill="#ffab70" id="path736"/><path d="m646.4 78-2.9.4 2.4 18.8 2.9-.4z" fill="#e8eaee" id="path738"/><path d="m653.3 78.2-2.3-.1-.5 18.9 2.3.1z" fill="#e1e4e8" id="path740"/><path d="m659.2 76.8-2.3-.3-2.8 18.7 2.3.3z" fill="#e8eaee" id="path742"/><path d="m659.4 90.9h-16.6v21.8h16.6z" fill="#e8eaee" id="path744"/><path d="m638.6 103.6h-44.8v9.2h44.8z" fill="#e1e4e8" id="path746"/><path d="m636.7 97.5h-37.4v6.9h37.4z" fill="#e8eaee" id="path748"/><path d="M502.3 211.1H386.5v3.8h115.7z" fill="#d1d5da" id="path750"/><path d="m504.3 210.2h-121v1.6h121z" fill="#e8eaee" id="path752"/><path d="m441.7 207.7c0 5-2 9.1-4.5 9.1s-4.5-4.1-4.5-9.1c0-2.2 2.6-9.1 2.6-9.1.6-.1 1.2-.1 1.9-.1 2.6.1 4.5 4.2 4.5 9.2z" fill="#e8eaee" id="path754"/><path d="m435.5 216.8c2.5.0 4.5-4.1 4.5-9.1s-2-9.1-4.5-9.1-4.5 4.1-4.5 9.1 2 9.1 4.5 9.1zm-1.5-19.4.5.4-2.6.5-.2-.6zm6.1.4.5.9-2.6.9-.2-1.2z" fill="#f6f8fa" id="path756"/><path d="m435.2 210.8c.6.0 1.1-1 1.1-2.1.0-1.2-.5-2.1-1.1-2.1s-1.1.9-1.1 2.1c0 1.1.5 2.1 1.1 2.1z" fill="#e8eaee" id="path758"/><path d="m374.5 209.1h-16.1v8h16.1z" fill="#d1d5da" id="path760"/><path d="M474.8 285.4H408.9L408.1 217H476z" fill="#e8eaee" id="path762"/><path d="m475.9 216.6h-67.8v7.6h67.8z" fill="#d1d5da" id="path764"/><path d="m396.5 284.6 12.4.6-.8-68.2h-12.8zm56.8-28.2h-3.6v-8h1.7c9.4.0 20 .1 26.3-6.2 4.1-4.1 6.2-10.9 6.2-20.2h8c0 11.6-2.8 20.1-8.6 25.8-8 8.2-19.9 8.6-30 8.6z" fill="#d1d5da" id="path766"/><path d="M449.3 248H449v8h.4v-8zm3.8 8-.1-8h.7l.1 8zm4.5-.1-.4-8h.7l.4 8zm4.5-.3-.7-8 .7-.1.9 8zm4.7-.6-1.4-7.9.7-.1 1.5 7.9zm4.7-1.1-2.2-7.7c.2-.1.4-.1.6-.2l2.4 7.7zm4.7-1.7-3.3-7.3.6-.3 3.5 7.2zm4.5-2.6-4.7-6.5.5-.4 4.9 6.3zm3.9-3.5-6.1-5.3.4-.4 6.2 5.1zm3-4.3-7-3.9.3-.5 7.2 3.7c-.2.2-.3.5-.5.7zm2-4.7-7.6-2.6c.1-.2.1-.4.2-.6l7.7 2.3c-.1.5-.2.7-.3.9zm1.3-4.7-7.9-1.5c0-.2.1-.4.1-.6l7.9 1.3c0 .3-.1.5-.1.8zm.6-4.8-8-.6.1-.7 8 .5c0 .4-.1.6-.1.8zm.2-4.7h-8v-.3l8-.1z" fill="#e1e4e8" id="path768"/><path d="m454 257.7c-2 0-4-.6-5.6-1.7-1.7-1.1-3-2.7-3.7-4.5-.8-1.8-1-3.9-.6-5.8.4-2 1.4-3.8 2.8-5.2 4-4 10.4-3.9 14.4.0.5.5.9 1 1.2 1.5 1.1 1.7 1.7 3.6 1.7 5.6.0 2.7-1.1 5.2-3 7.1-1.9 1.9-4.5 3-7.2 3zm0-17.2c-1.4.0-2.8.4-4 1.2-1.2.8-2.1 1.9-2.7 3.2-1.1 2.7-.5 5.8 1.6 7.8 2.8 2.8 7.4 2.8 10.2.0.3-.3.6-.7.9-1.1.8-1.2 1.2-2.6 1.2-4 0-2.9-1.8-5.5-4.4-6.7-.9-.3-1.9-.5-2.8-.4z" fill="#e1e4e8" id="path770"/><path d="m447.9 243.9c1.3.0 2.4-1.1 2.4-2.4s-1.1-2.4-2.4-2.4c-1.3.0-2.4 1.1-2.4 2.4s1.1 2.4 2.4 2.4z" fill="#d1d5da" id="path772"/><path d="m673.2 293.8-111-3.4V111.8h111z" fill="#e8eaee" id="path774"/><path d="m673.2 111.8 13.6 12.1v156.8l-13.6 13.1zm-7 7.9-98.6 1.2.2 15.2 98.6-1.2c-.1.0-.2-15.2-.2-15.2z" fill="#e1e4e8" id="path776"/><path d="m668.4 115.2-103.5 1.3.1 6.2 103.5-1.3s-.1-6.1-.1-6.2z" fill="#f6f8fa" id="path778"/><path d="m666.2 147-98.6.5.1 23.4 98.6-.5z" fill="#e1e4e8" id="path780"/><path d="M668.5 142.6l-103.5.5v6.2l103.5-.5z" fill="#f6f8fa" id="path782"/><path d="m666.2 182.5h-98.6v23.4h98.6z" fill="#e1e4e8" id="path784"/><path d="m668.5 179-103.5-1.5-.1 6.2 103.5 1.5z" fill="#f6f8fa" id="path786"/><path d="m666.1 217.3-98.6 1.2.3 23.4 98.6-1.2z" fill="#e1e4e8" id="path788"/><path d="m668.3 212.9-103.5 1.3.1 6.2 103.5-1.3z" fill="#f6f8fa" id="path790"/><path d="m666.2 253.1h-98.6v23.4h98.6z" fill="#e1e4e8" id="path792"/><path d="m668.6 249.3-103.6-1.1-.1 6.2 103.5 1.2z" fill="#f6f8fa" id="path794"/><path d="m201.6 140.4h2.7l-.6-21.9-2.7.1z" fill="#e1e4e8" id="path796"/><path d="m199.4 140.8 2.7-.3-3.4-21.7-2.7.2z" fill="#e8eaee" id="path798"/><path d="m194 152.5h19.3V128.3H194z" fill="#f6f8fa" id="path800"/><path d="m221.7 152.5h27.1v-7.9h-27.1z" fill="#e8eaee" id="path802"/><path d="m156.4 292.9 129.2-2.6V152.1H156.4z" fill="#e1e4e8" id="path804"/><path d="m156.4 152.1-15.9 9.4v121.3l15.9 10.1zm8 21.6 114.7.9.2-11.8-114.7-.9z" fill="#e8eaee" id="path806"/><path d="m161.9 163.3 120.5 1 .1-4.8-120.5-1z" fill="#f6f8fa" id="path808"/><path d="m164.4 201.1 114.8.4.1-18.1-114.7-.4z" fill="#e8eaee" id="path810"/><path d="m163.1 184.4 119.3.4V180l-119.3-.4z" fill="#f6f8fa" id="path812"/><path d="M164.5 228.6H279.3V210.5H164.5z" fill="#e8eaee" id="path814"/><path d="m161.9 212.5 120.5-1.1-.1-4.8-120.5 1.1z" fill="#f6f8fa" id="path816"/><path d="m164.3 255.4 114.7.9.3-18.1-114.7-.9z" fill="#e8eaee" id="path818"/><path d="m162 238.7 120.5 1 .1-4.8-120.5-1z" fill="#f6f8fa" id="path820"/><path d="M164.5 283.2H279.3V265.1H164.5z" fill="#e8eaee" id="path822"/><path d="m161.9 267 120.5-.9-.1-4.8-120.5.9z" fill="#f6f8fa" id="path824"/><path d="M517.4 222.4H374.5l-.5-8.3 144.1.7z" fill="#e8eaee" id="path826"/><path d="m269.8 217.6c-.4.0-.9-.1-1.4-.2-9.1-2.5-16.3-16.2-15-24.5l1.7.3c-1.2 7.5 5.6 20.4 13.8 22.7 2.6.7 4.7-1.7 6.8-4.1.9-1 1.8-2 2.7-2.7l1 1.4c-.8.6-1.6 1.5-2.4 2.5-2 2-4.3 4.6-7.2 4.6z" fill="#0366d6" id="path828"/><path d="m287.9 207.1-9.8 8-24.7-22.4c-4-3.7-4.3-9.7-.2-13.1 4.1-3.5 10.4-2.5 13.9 1.7z" fill="#ffab70" id="path830"/><path d="m280.2 208.4c-2.7 2.4-3.7 5.2-2.3 6.3 1.4 1.2 4.4.1 6.9-2.1 2.6-2.2 3.7-5 2.5-6.2-1.1-1.2-4.4-.4-7.1 2z" fill="#fb8532" id="path832"/><path d="m288.7 211.7c-1.4.1-3.6-1.8-3.6-1.8-1.4-.3-3.1.9-3.1 2 .5 1.3.8 2.7 1 4.1z" fill="#ffab70" id="path834"/><path d="m282.1 211.3c1.3 1.8 5.9.2 5.9.2l-2.3 2.8-2.6 1.8-1.2-4.3z" fill="#fb8532" id="path836"/><path d="m285.1 213.4c-2.2 1.9-3.5 3.9-2.9 4.5.6.5 2.8-.6 5-2.5s3.5-3.9 2.9-4.4c-.5-.6-2.8.4-5 2.4z" fill="#ffab70" id="path838"/><path d="m282.2 217.9 1 1 7.8-6.3-.8-1.6-4.7 2.6z" fill="#ffab70" id="path840"/><path d="m285.8 214.3c-2.2 1.9-3.5 3.9-2.8 4.4.6.5 2.8-.6 4.9-2.4 2.1-1.8 3.5-3.8 2.9-4.4s-2.8.5-5 2.4z" fill="#fb8532" id="path842"/><path d="m315.3 243.9-1.9 1.6-27.4-29c0-.6.3-1.1.8-1.4.4-.4 1-.6 1.5-.6z" fill="#c8e1ff" id="path844"/><path d="m279.1 214.3c1.1-2 1.8-4.2 2.1-6.5-1.5.8-3.2 1.2-4.9 1.4-1.8-.1-3.4-.8-4.8-1.9-2.1-1.5-4.2-3.1-6.1-4.9-4.4-4.1-8.4-8.6-11.9-13.6-.5-.7-1.7-3-2.9-5-.4 1.6-.3 3.3.2 4.8.5 1.6 1.4 3 2.7 4.1l24.7 22.4z" fill="#fb8532" id="path846"/><path d="m281.3 210.8-1.8 1.5-22.6-22.4 1.9-2.8zm4.8-3.2-1.2 1-21.5-25.1 2.2-.6z" fill="#fb8532" id="path848"/><path d="m341.9 221.4c-4.3.0-8.9-.6-14.1-1.7-16.5-3.6-25.2-10-28.1-20.7-2.9-10.5-4.8-25.6 2.9-38.1l.3.2c-.8-3.6-1.9-9.9-1.4-12.8v-.2l.1-.1c2.7-4.1 13.6-9.1 21.8-7.2 13.9-5.8 31.6-1.5 43.1 5.4 7.5.4 17.5 6.6 17.9 8.5.2 1.2.1 13.1-3.8 17.9.5 7.8-1.2 17.5-4.6 26.5-3.3 8.8-7.6 15.1-11.3 16.8-8.4 3.6-15.2 5.5-22.8 5.5zM303.3 163c-6.5 11.7-4.7 25.7-2 35.5 2.8 10.1 11 16.1 26.9 19.5 13.9 3.1 23 2.1 35.9-3.8 6.4-2.9 16.1-24.8 14.9-42v-.4l.2-.3c3.4-3.8 3.8-15.1 3.6-16.6-.9-1.3-9.4-6.9-16.5-7.2h-.2l-.2-.1c-15.6-9.4-32.3-9.4-42-5.2l-.3.1-.3-.1c-7.1-1.7-17.6 2.6-20.2 6.3-.6 3.8 2 14.5 2 14.6l-1.6.4c0-.1-.1-.3-.2-.7z" fill="#0366d6" id="path850"/><path d="m368.2 213-1.2-1.2c2.8-2.7 1.5-5.4.3-8-.5-1.1-1-2.1-1.1-3-.1-1.4.6-2.7 1.7-4.4 1.5-2.5 3.7-5.9 4.5-11.8.6-4.2-.9-7.9-3.9-9.9-2.5-1.7-5.7-2-8.1-.6-4.7 2.6-14.7 6.7-28.6 4.5-7.1-1.1-11.7-5.2-15-8.2-1.8-1.6-3.4-3-4.5-3.1-1-.1-2.2.4-3.3 1.5-2.3 2.2-3.5 6-3.2 9.7.2 2.6.6 4.7.8 6.4.4 2.7.7 4.6.3 6.5-.2 1.1-.7 2-1.1 2.8-.7 1.4-1.3 2.6-1.3 5.3.0 3.4.8 8 4.8 10.5l-.9 1.4c-4.6-2.9-5.6-8.1-5.6-11.9.0-3 .8-4.6 1.5-6 .4-.8.7-1.5.9-2.5.3-1.5.1-3.3-.4-5.8-.3-1.7-.6-3.8-.9-6.5-.4-4.1 1.1-8.5 3.7-11.1 1.4-1.4 3.1-2.1 4.7-2 1.7.2 3.4 1.7 5.5 3.6 3.2 2.8 7.6 6.7 14.2 7.8 13.4 2.1 23-1.8 27.6-4.3 3-1.6 6.8-1.4 9.8.7 3.6 2.4 5.2 6.6 4.6 11.5-.9 6.2-3.2 10-4.7 12.4-.9 1.5-1.6 2.5-1.5 3.4.1.6.5 1.5 1 2.5 1.3 2.6 3.1 6.2-.6 9.8z" fill="#0366d6" id="path852"/><path d="m358.6 316c-8.4.0-16.7-2.4-24-7-.7-.3-1.3-.9-1.7-1.5-.5-.7-.7-1.5-.7-2.3-1.6-9.8-.9-20.9-.3-31.7.4-6.5.7-12.7.6-18.6h1.7c.1 5.9-.2 12.1-.6 18.7-.6 10.7-1.2 21.7.3 31.4v.1c0 .5.1 1 .5 1.4.3.4.7.8 1.2 1 4.9 3.2 10.3 5.2 15.9 6.2v-.1c4-.9 9.5-2.5 13.1-5.3 1.3-1.1 2.9-1.9 4.4-2.3 1.9-.4 4.2.3 5 2.2v.1c.5 1.8-.1 3.7-1.5 4.8-1.3 1-2.8 1.6-4.4 1.9-3.2.7-6.4 1-9.5 1zm-2.7-1.8c3.9.3 7.9.0 11.9-.9 1.3-.2 2.6-.7 3.7-1.5.8-.6 1.2-1.8.9-2.9-.5-1-1.9-1.4-3-1.2-1.2.3-2.5 1-3.7 2-2.9 2.1-6.5 3.5-9.8 4.5zM332.6 206.1h-.8c-1.7-.2-3.1-1-3.9-2-.4-.6-.6-1.2-.5-1.8.3-1.8 2.5-2.8 5.2-2.4 1.7.2 3.1 1 3.8 2 .4.6.6 1.2.5 1.8-.1.5-.3 1-.8 1.4-.7.6-2 1-3.5 1zm-1-4.6c-1.4.0-2.4.5-2.5 1.1.0.2.1.4.2.5.4.5 1.3 1.1 2.7 1.3 1.5.1 2.6-.2 3.1-.6.1-.1.2-.2.2-.3v-.1c0-.2-.1-.4-.2-.5-.4-.5-1.3-1.1-2.7-1.3-.2-.1-.5-.1-.8-.1z" fill="#0366d6" id="path854"/><path d="m373.4 307.9-1.7-.3c.5-2.8.6-5.6.2-8.2-.3-2.7-1.6-5.1-3.6-6.9-1.3-1-2.7-1.8-4.3-2.2-5.8-1.9-11.7-2.3-17.8-1l-.4-1.7c6.4-1.4 12.6-1 18.6 1 1.7.5 3.3 1.3 4.9 2.5 2.4 2.1 3.9 4.9 4.2 8 .5 2.9.5 5.8-.1 8.8z" fill="#0366d6" id="path856"/><path d="m306.8 314-.2-.1c-5.2.2-10.4-.6-15.3-2.3-1.5-.5-2.9-1.3-3.8-2.3-1.3-1.3-1.6-3.3-.7-4.9l.1-.1c1.2-1.5 3.3-2.1 5-1.4 1.4.6 2.7 1.5 4 2.8 2.8 2.7 6.1 4.7 9.6 6 .2-.1.4.0.6.1.2.1.3.2.4.5 5.7-.2 11.3-1.5 16.4-4.1h.1c.4-.1.9-.4 1.2-.8.3-.5.5-1 .6-1.4 3.2-11.2 3.9-24.1 4.6-36.6.2-3.9.4-7.9.7-11.7l1.7.1c-.3 3.8-.5 7.6-.7 11.6-.7 12.6-1.4 25.6-4.6 36.8-.1.5-.3 1.2-.8 1.9l-.1.1c-.5.6-1.2 1.1-1.9 1.4-5.5 2.6-11.2 4.1-16.9 4.4zm-1.1-2.2c.1.0.1.0.2.1l-.1.3h.3c0-.1-.1-.3-.4-.4zm-17.6-6.5c-.5.9-.3 2.1.5 2.8.8.8 1.9 1.5 3.2 1.9 3.3 1.2 6.8 1.9 10.2 2.1-2.7-1.3-5.2-3.1-7.4-5.2-1.1-1.1-2.3-1.9-3.4-2.4-1.1-.5-2.4-.1-3.1.8zm66.6-16.8c-3.9-11.5-7.7-24.6-6.5-35.2-.1-.4.0-.8.2-1.2l2-3.1-.5 3.6c-1.4 10.4 2.4 23.7 6.4 35.3z" fill="#0366d6" id="path858"/><path d="m288 305.5-1.6-.4c1.7-7.6 6.6-14.2 12.6-17.4 1.7-.9 3.4-1.6 5-2 4.9-10.6 7.9-23.5 7.7-33.2h1.7c.2 11.5-3.6 24.2-7.4 32.8 2.9-.3 5.9.3 9.2 2.6l-.9 1.4c-4.7-3.2-8.5-3.2-14.5.0-5.6 2.9-10.1 9.1-11.8 16.2zm-19.6-88.1c-9.1-2.5-16.3-16.2-15-24.5l.8.1-.8-.1c1-6.5 3.6-10.1 8.9-12.3 12-5.1 26.8-2.7 36.9 6l-1.1 1.3c-9.4-8.2-23.9-10.5-35.1-5.8-4.7 2-7 5.1-7.9 11.1-1.2 7.5 5.6 20.4 13.8 22.7zm109.2-43.5-1.4-1c1.7-2.4 3.4-12.8 3.3-14.6-1.3-.7-9-1.7-13 .3l-.8-1.5c4.1-2.1 14.3-1.5 15.2.4 1.1 1.9-1.8 14.3-3.3 16.4zm-15.4 53.6c-.4.0-.7-.3-.8-.6-.5-1.7-1.1-3.4-2.2-4.4-.8-.7-2.1-1.1-3-.8.7 1.3 1.3 2.7 1.7 4.1l-1.6.4c-.7-2.6-2-4.9-3.9-6.7l1.2-1.2c.6.6 1.2 1.2 1.7 1.9.6-.3 1.3-.4 2-.3 1.1.1 2.2.6 3.1 1.3 1.4 1.2 2.1 2.9 2.5 4.4.3.4.4 1 .2 1.4-.3.4-.6.5-.9.5zm-.8-1.2c-.1.2.0.4.2.5l.2-.4z" fill="#0366d6" id="path860"/><path d="m378.7 226.6c-3.1.0-6.1-.5-8.9-1.6l.6-1.6c6.9 2.7 15.4 1.8 22.8-2.6 6-3.6 11.2-9.4 15.9-17.7l.3-.6c1-1.8 2.1-3.6 4-4.7 1.2-.7 2.4-1.1 3.7-1.3 4.5-1.1 9-3.1 13.3-5.9 2.4-1.6 6.2-4.8 5.2-8.5l-.3-1 1-.1h.6c.3.0 1.2.0 1.3-.2v-.3c-.2-.9-3.2-1.2-4.8-1.4-.3.0-.6-.1-.9-.1-7.9-1.2-15.8-1.2-23.7.0-4.2.6-8.9 1.7-12.1 5-2.7 2.7-3.9 6.5-5.1 10.4-.8 2.5-1.6 5.1-2.8 7.4-2.1 3.8-5.3 6.9-9 8.9-3.7 1.9-7.9 2.8-12.3 2.5l.1-1.7c4 .3 7.9-.5 11.3-2.3 3.4-1.8 6.3-4.7 8.3-8.2 1.2-2.2 1.9-4.7 2.7-7.1 1.3-4 2.6-8 5.5-11.1 3.6-3.6 8.6-4.8 13.1-5.4 8-1.2 16.1-1.2 24.2.0.3.0.6.1.9.1 2.6.3 5.7.7 6.2 2.7.1.7.0 1.3-.3 1.7-.5.7-1.4.8-2.2.8.4 4.2-3.6 7.6-6.1 9.3-4.5 2.9-9.1 4.9-13.9 6.1-1.1.2-2.1.5-3.2 1.1-1.5.9-2.4 2.4-3.3 4.1l-.3.6c-4.8 8.5-10.2 14.5-16.5 18.3-4.8 2.9-10.2 4.4-15.3 4.4zm-74.9-20-5.2-3.6c-2.2-1.5-4.3-2.9-6.6-3.5-2.2-.5-2.8-.2-4.6.8l-.5-.7-.3-.8c1.9-1 3-1.6 5.8-.9 2.6.6 5 2.2 7.2 3.7l5.2 3.6zm2-45.3c-1.2-3.8-2.2-10.9-1.1-12.7.3-.4.6-.6.9-.6 4.5-.8 12.7 6 14.1 7.5l-1.2 1.2c-1.4-1.5-8.7-7.3-12.3-7-.4 1.1-.1 6.4 1.3 11.1zm.1-11.6c-.1.0.0.0.0.0z" fill="#0366d6" id="path862"/><path d="m372 220.5c-.8.0-1.7.0-2.5-.1-1.5.0-3-.1-4.6-.3l.2-1.7c1.5.2 2.9.3 4.4.3 6.9.3 11.3-.6 12.2-1.3-.9-.7-5.3-1.9-12.2-2.1-1.7-.1-3.4-.1-5 0l-.1-1.7c1.7-.1 3.5-.1 5.2.0.5.0 13.9.4 13.9 3.8.0.3-.1.7-.5 1.1-1.4 1.4-6.3 2-11 2zm17.7-7.3c-.6.0-.9-.2-1.1-.5-1.9-1.7 1.5-7.3 5.5-11.8 4.7-5.1 6.9-7.4 8.5-7.5.5.0.9.1 1.2.4 1.6 1.4.3 6.2-4.6 11.7-6.9 7.7-8.8 7.7-9.5 7.7.1.0.1.0.0.0zm12.9-18c-1 0-4.8 4.2-7.3 6.9-4.7 5.2-5.8 8.8-5.5 9.4.0.0 1.5.1 8.1-7.1 4.7-5.1 5.1-8.7 4.7-9.2zm9.9-8.7c-8.9.0-9.8-1.9-9.9-2.6.0-3.3 12.4-4.1 13.8-4.2 1.4-.1 14-.9 14.2 2.5.0 3.3-12.4 4.1-13.8 4.2-1.6.0-3 .1-4.3.1zm-8-2.8c1 .6 5 1.3 12.3.9 6.8-.4 11.2-1.7 12.1-2.4-1-.6-5.4-1.4-12.3-.9-6.9.4-11.2 1.7-12.1 2.4zm-130.9 28.2-1.7-.3c.7-4.1 3.3-7.6 7-9.7 1.2-.7 2.6-1.1 3.9-1.1 1 0 2 .4 2.8 1.1 1.3-3.3-1.4-7.2-3.4-10.2-2.3-3.4-5.6-5.8-9.7-7l.5-1.6c4.5 1.3 8.2 3.9 10.7 7.6 2.4 3.4 5.9 8.7 2.9 13.1-.2.2-.4.4-.7.4s-.5-.2-.7-.4c-.5-.8-1.4-1.3-2.3-1.3-1 0-2.1.3-3.1.9-3.3 1.9-5.5 5-6.2 8.5z" fill="#0366d6" id="path864"/><path d="m255.2 227.5 2.2 1.2-26.5 42.9-2.2-1z" fill="#e8eaee" id="path866"/><path d="m246.7 244.1-1.8.1c-1.7.1-3.1 1.5-3.2 3.2l-.5 6.3 5.1-.4z" fill="#f6f8fa" id="path868"/><path d="m268.7 316.7c3.6.0 6.5-2.9 6.5-6.4s-2.9-6.4-6.5-6.4-6.5 2.9-6.5 6.4 2.9 6.4 6.5 6.4z" fill="#959da5" id="path870"/><path d="m247.1 252.4c1.2.0 2.2-1.8 2.2-4.1.0-2.3-1-4.1-2.2-4.1s-2.2 1.8-2.2 4.1c0 2.3 1 4.1 2.2 4.1z" fill="#e8eaee" id="path872"/><path d="m269.4 303.2c-4.2 3.4-5.2 11.6-2.3 13.6h4c-3-4.1.5-12.6.5-12.6z" fill="#d1d5da" id="path874"/><path d="M274.8 306.6H260l-.3-51.7H275z" fill="#d1d5da" id="path876"/><path d="m274.8 306.6 2.7-1.5.3-50.2H275z" fill="#959da5" id="path878"/><path d="m373.6 291.8-97.4-1-.1 8.2 97.4 1z" fill="#d1d5da" id="path880"/><path d="m373.6 290-97.4-1v1.8l97.4 1z" fill="#e1e4e8" id="path882"/><path d="m374.7 316.7c3.6.0 6.5-2.9 6.5-6.4s-2.9-6.4-6.5-6.4-6.5 2.9-6.5 6.4 2.9 6.4 6.5 6.4z" fill="#959da5" id="path884"/><path d="m375.5 303.2c-4.2 3.4-5.2 11.6-2.3 13.6h4c-3-4.1.5-12.6.5-12.6z" fill="#d1d5da" id="path886"/><path d="m380.9 306.6h-14.8l-.3-51.7h15.3z" fill="#d1d5da" id="path888"/><path d="m380.9 306.6 2.7-1.5.3-50.2h-2.8zM244 329.4c3.6.0 6.5-2.9 6.5-6.4s-2.9-6.4-6.5-6.4-6.5 2.9-6.5 6.4c0 3.6 2.9 6.4 6.5 6.4z" fill="#959da5" id="path890"/><path d="m244.7 315.9c-4.2 3.4-5.2 11.6-2.3 13.6h4c-3-4.1.5-12.6.5-12.6z" fill="#d1d5da" id="path892"/><path d="m373.8 268.3 13.9-14.9-.4-6.6-13.5 11.7z" fill="#959da5" id="path894"/><path d="M373.8 258.4H235v9.8h138.8z" fill="#d1d5da" id="path896"/><path d="m228.1 254.8c1.5-.4 35.1-14.9 35.1-14.9l125.6 2.5-12.4 14.9z" fill="#959da5" id="path898"/><path d="m228.1 254.8 1.1 5.1 146.8 1.8.4-4.4z" fill="#6a737d" id="path900"/><path d="m388.7 242.4.4 4.7-13.1 14.6.4-4.4z" fill="#6a737d" id="path902"/><path d="m250.1 319.2h-14.8l-.3-51h15.3z" fill="#d1d5da" id="path904"/><path d="m250.1 319.2 2.7-1.5.3-49.5h-2.8z" fill="#959da5" id="path906"/><path d="m358 299.9-106.6-1.1-.1 9 106.6 1.1z" fill="#d1d5da" id="path908"/><path d="m358.1 297.8-106.6-1.1v2l106.6 1.1z" fill="#e1e4e8" id="path910"/><path d="m363.5 329.2c3.6.0 6.5-2.8 6.5-6.2s-2.9-6.2-6.5-6.2-6.5 2.8-6.5 6.2c0 3.5 2.9 6.2 6.5 6.2z" fill="#959da5" id="path912"/><path d="m364.2 316c-4.2 3.3-5.2 11.4-2.3 13.2h4c-3.1-4 .5-12.3.5-12.3z" fill="#d1d5da" id="path914"/><path d="m369.6 319.3h-14.8l-.3-51h15.3z" fill="#d1d5da" id="path916"/><path d="m369.6 320 2.7-1.4.3-49.6h-2.8z" fill="#959da5" id="path918"/><ellipse cx="256.70001" cy="227.89999" fill="#e8eaee" rx="2.7" ry="2.5" id="ellipse920"/><path d="m229.7 273.9c1.5.0 2.7-1.1 2.7-2.5s-1.2-2.5-2.7-2.5-2.7 1.1-2.7 2.5 1.2 2.5 2.7 2.5z" fill="#e8eaee" id="path922"/><ellipse cx="568.90002" cy="307.39999" fill="#e8eaee" rx="35.099998" ry="4.4000001" id="ellipse924"/><path d="m547.7 303.2c-.8.8-1.9 1.1-3 .9-2-.4-2.5-1.4-2.5-1.4l3.6-42.4 7 .7zm43.5-10.1c-.2.5-.5 1-.9 1.4s-.9.6-1.5.7c-1.9.5-2.8-.2-2.8-.2l-15.2-39.7 6.6-2.4z" fill="#959da5" id="path926"/><path d="m579.5 278.2-30.6 4.7c-.5-.6-.8-1.3-.7-2.1.1-.8.3-1.7.6-2.5l29.8-5.1z" fill="#959da5" id="path928"/><path d="m529.6 256.3c.7 4.2 4 8.9 6.2 9 0 0 17.7.4 28.6-2s15.3-3.9 16.7-4.9c1.3-1.1 3.2-6.5 2.4-10.5z" fill="#d1d5da" id="path930"/><path d="m557.3 256.7c14.9-2.3 26.6-6.2 26.2-8.8-.4-2.5-12.8-2.7-27.7-.4-14.9 2.3-26.6 6.2-26.2 8.8.4 2.5 12.8 2.7 27.7.4z" fill="#e1e4e8" id="path932"/><path d="m541.8 310.1c-.9.8-2.2 1.1-3.4.8-2.1-.5-2.6-1.7-2.6-1.7l6.2-46 7.6 1.1zm48.4-7.1c-.5 1.1-1.5 1.9-2.7 2.2-2.1.5-3.1-.4-3.1-.4l-14.9-45.7 7.3-2.2z" fill="#d1d5da" id="path934"/><path d="m578 284.2-33.6 3.5c-.5-.7-.8-1.5-.7-2.3.2-.9.4-1.8.8-2.6l32.8-3.9z" fill="#d1d5da" id="path936"/><path d="m298.9 234.3-1.5 3.1-6.1-3.5-5.2 1.9-4.2 3.2-2.9-1 1.1-2.7 4.6-2.7 7-1.6z" fill="#959da5" id="path938"/><path d="m299.1 236.5-1.5 3.1-6.1-3.5-5.5 1-5 2.1-1.9-1.3 5.8-3.1 7.1-1.6zm19.9 17.9c16.1.0 29.2-1.2 29.2-2.7S335.1 249 319 249c-16.1.0-29.2 1.2-29.2 2.7s13.1 2.7 29.2 2.7z" fill="#6a737d" id="path940"/><path d="m442.8 337.5c-11.9.0-22.8-1.2-33-3.7-3.8-.9-9.2-2.6-11.4-6.9-1.2-2.4-1.2-5.1-1.2-7.8v-48.9c0-4.8-.5-10.5-4.7-12.7-4-2.2-8.9-1.8-13.7-1.4-2 .1-3.8.3-5.6.3-2.6.1-5-.4-7.2-1.7-1.5-1-2.7-2.3-3.8-3.7-.7-.8-1.4-1.6-2.1-2.3-2.4-2.3-5.4-3.6-8.8-3.8v-.8c3.6.2 6.9 1.6 9.4 4 .8.7 1.5 1.6 2.2 2.4 1.1 1.3 2.2 2.6 3.6 3.5 2 1.1 4.3 1.6 6.8 1.5 1.8.0 3.6-.1 5.6-.3 4.9-.4 9.9-.8 14.1 1.5 4.5 2.4 5.1 8.5 5.1 13.5v48.9c0 2.6.0 5.2 1.2 7.4 2 4 7.1 5.6 10.8 6.5 20 4.8 42.5 4.9 70.8.2 5-.8 11.8-2.5 13.4-7.9 1.3-4.4-2.2-9.1-6.2-11.1-3.7-1.8-7.9-2.1-12-2.4-.6.0-1.3-.1-1.9-.1-5.9-.4-12.6-1.2-18.3-4.6-.9-.5-1.6-1.1-2-1.9-.4-.8-.4-1.7-.1-2.5.7-1.7 2.7-3 4.4-3.6 6.9-2.3 14.3-1.5 21.5-.7 7.5.8 15.3 1.6 22.3-1.2 2.9-1.1 5.5-2.9 7.3-5.4 2.3-3.5 2.6-7.9 2.6-11.7.0-5.1-.5-10.4-1.4-15.8-.4-2.1-1-4.7-2.8-6-.9-.6-2-.9-3.2-.7l-.1-.8c1.4-.2 2.7.1 3.8.9 2.1 1.5 2.8 4.3 3.2 6.6.9 5.5 1.4 10.9 1.4 16 0 4-.3 8.5-2.8 12.2-2 2.6-4.6 4.5-7.7 5.7-7.1 2.8-15 2-22.6 1.2-7.1-.7-14.5-1.5-21.2.7-1.5.5-3.3 1.6-3.9 3.1-.3.6-.2 1.2.1 1.8.3.7.8 1.1 1.6 1.5 5.5 3.3 12.2 4.1 17.9 4.5.6.1 1.3.1 1.9.1 4.2.3 8.5.6 12.3 2.5 4.3 2.1 8 7.2 6.6 12.1-1.7 5.9-8.8 7.7-14 8.5-14 2.1-26.6 3.3-38.2 3.3z" fill="#ffd1ac" id="path942"/><path d="m300.8 232.2-3.2 1.7-2.8-6.8-6.4-.3-7.7-.8 1.4-1.3 5.9-2.3 8.8 1.5z" fill="#6a737d" id="path944"/><path d="m300.8 233-3.2 1.7-3.7-6.2-5.5-1.7-6.4 1.2-1.3-2.1 7.4-2.8 8.9 2.3z" fill="#959da5" id="path946"/><path d="m301.1 238.7-6.2 6.3-6.3 1.8h-6.2l-.3-1.8 1.2-2.6 5 1.2 5-1.2 5.4-6.9z" fill="#d1d5da" id="path948"/><path d="m301.5 239.6-6.2 6.2-6.3 1.8-6.6-.9 1.4-3.5 5 1.2 5.2-.8 5.4-6.2z" fill="#6a737d" id="path950"/><path d="m297.7 245.9 6.1.9v-3.3c-2.4.1-4.7-.1-7-.7.1 1.1.5 2.1.9 3.1z" fill="#d1d5da" id="path952"/><path d="m299 223.8c-.9 3-2.2 6.7-2.6 9.4 2.4-.5 4.9-.4 7.2.3l-.1-9.5z" fill="#959da5" id="path954"/><path d="m296.6 242.9c2.3.5 4.7.6 7.1.4l-.5-10c-2.4-.5-4.3-.8-6.8-.1-.6 3.2-.5 6.5.2 9.7z" fill="#b2bbc4" id="path956"/><path d="m298.1 234c-.1 5.1 1.4 10 4.2 14.2 3.2-.3 6.5-.9 9.9-1.1-2-6.2-2.7-12.6-2.2-19.1-1.9-2.3-3.3-4.9-4.3-7.7-1.2.5-2.4 1.1-3.5 1.8-1.2.8-3.9 4.9-4.1 11.9z" fill="#6a737d" id="path958"/><path d="m312.5 218.2c17.2-4.6 34 2.1 37.4 4.1 3.5 5.3 5.4 20.2-.5 26.6-8.8 5-22.9 7.4-35.1 4.6-4.2-9.9-7-24.1-1.8-35.3z" fill="#fff4b5" id="path960"/><path d="m352.2 243.7c-.5 1.9-1.5 3.6-2.8 5.1-8.8 5-22.9 7.4-35.1 4.6-2.9-7-5.2-16.4-4.3-25.3 2.5 3.1 8.9 10.5 18 6.2 16.4-7.7 29.2-10.1 24.2 9.4z" fill="#ffdf5d" id="path962"/><path d="m305.7 220.5c1.1 2.7 2.5 5.2 4.1 7.5.3-3.4 1.2-6.7 2.6-9.8-2.2.6-4.5 1.3-6.7 2.3z" fill="#959da5" id="path964"/><path d="m314.2 253.4c-.5-1.3-2.6-6.7-3-8.4-2.9-1.2-9.7-4.8-12.4-4.5.7 3.5 2.4 6.7 5 9.2 3.3 1.7 6.8 3 10.4 3.7z" fill="#586069" id="path966"/><path d="m349.3 248.8c-8.8 5-22.9 7.4-35.1 4.6-.8-1.8-2.4-6.3-3-8.4 7.3 2.7 27.5 2.6 38.1 3.8zM310 227.3s1.3-6.4 1.9-7.8l27.2 1.1-1.3 6z" fill="#f9c513" id="path968"/><path d="m304 237.7h-.1c-.6.0-.7-.4-.7-.5h.7l-.2-.3c.5-.3.8-.6 1.2-.9.3-.5.5-.9.6-1.3.2-1.2.3-2.2.2-3.2.0-2.1.4-3.8 1.1-5.3.4-.8 1.1-1.6 1.8-2.2.8-.5 1.6-.9 2.6-1 1.7-.1 3.4.8 5.1 2.5l-.6.6c-1.6-1.6-3.1-2.3-4.5-2.3-.8.1-1.5.4-2.2.8-.6.5-1.2 1.1-1.6 1.8-.7 1.4-1.1 3-1.1 4.9.1 1 0 2.1-.2 3.4-.1.6-.4 1.1-.8 1.6l-.1.1c-.1.6-.5.9-1.2 1.3zm-.1-.5h.1c0-.1-.1-.2-.1-.3z" fill="#fb8532" id="path970"/><path d="m302.7 231.2v-.8c.3.0.6-.3.7-.6.1-.5.1-.9.1-1.4.0-1.6.2-3.6 1.5-5 1.2-1 2.6-1.3 3.6-1.4 2.6-.3 6 .6 7.4 3.1l-.7.4c-1.3-2.2-4.2-2.9-6.6-2.7-.9.1-2.1.3-3.1 1.2-1.1 1.1-1.3 2.8-1.3 4.4.0.5.0 1-.1 1.6-.1.7-.8 1.2-1.5 1.2z" fill="#79b8ff" id="path972"/><path d="m343.9 226.4c-.5.0-1.1-.5-1.8-1.1-.1-.1-.2-.2-.3-.2l-.1.1c-.1-.2-.3-.6.0-.8.3-.2.6.0 1 .4.2.2 1 .9 1.2.9.2-1 .7-1.9 1.5-2.6 1-.6 1.8-.8 2.7-.8.7-.1 1.7.0 2.6.2.4.1.8.3 1.2.5.3.1.5.2.8.3 1.7.5 3.7.1 5.1-1.2l.6.6c-1.6 1.5-3.9 2-5.9 1.4-.3-.1-.6-.2-.9-.4-.3-.2-.7-.3-1-.4-.8-.2-1.7-.3-2.3-.2-.8.0-1.5.2-2.2.6-.6.5-1 1.2-1.2 2-.1.4-.3.6-.5.7z" fill="#fb8532" id="path974"/><path d="m346.2 227.3h-33.8c2.6-3.4 5.4-8.7 4.7-12.9l34-.1c.1 5.4-4.9 13-4.9 13z" fill="#ffdf5d" id="path976"/><path d="m316.4 212.9h34l.7 1.3h-34z" fill="#fff4b5" id="path978"/><path d="m316.4 212.9c.8 4.2-3.5 14.7-4 14.3 1.7-1.6 3.1-3.7 3.9-5.9.8-2.3 1.1-4.7.8-7.1z" fill="#ffd33d" id="path980"/><path d="m342.9 253.8c-2.2.0-4.4-.3-6.3-.7-.9-.2-1.8-.6-2.5-1 0 0-.1.0-.1-.1-.7-.5-1.2-1.3-1.3-2.1-.4.1-.8.1-1.3.1h-.1c-1.1-.3-2-1-2.4-1.9-.9-1.8-.1-3.8.6-5.2 2.6-5 7.8-8.2 12-10.4l.6-.3c2.4-1.3 4.8-2.4 6.1-4.5.3-.7.9-1.8 1.9-2.6.1.0.1-.1.2-.1.9-.3 1.9-.5 2.9-.3 5.7.4 11.4 1.6 16.8 3.6l-.6 1.6c-5.3-2-10.8-3.2-16.4-3.5-.7-.1-1.4.0-2 .2-.5.4-1 1-1.3 1.9.0.0.0.1-.1.1-1.6 2.5-4.2 3.9-6.8 5.2l-.6.3c-4 2.1-8.8 5-11.2 9.6-.8 1.7-1 2.9-.6 3.7.2.5.6.8 1.2.9.3.0.9.0 1.3-.4.3-.3.7-.4 1.1-.2.4.2.5.6.4 1-.3.7.0 1.4.6 1.9.6.3 1.3.6 2 .8 6.3 1.5 14.4.7 18.4-4.4 2.8-3.6 3.7-9.8 2.1-14.7l1.6-.5c1.8 5.4.8 12.2-2.3 16.3-3.4 4.2-8.8 5.7-13.9 5.7z" fill="#0366d6" id="path982"/><path d="m367.1 250.9c-4.4.0-8.1-1.1-10.9-3.2l1-1.4c5.5 4.1 13.5 3.1 19.2 1.5 1.5-.5 3-1 3.9-2.1 1-1.4.8-3.4-.6-6.3-4.3-9.2-10.9-16.9-19-22.5l.9-1.4c8.4 5.7 15.2 13.7 19.6 23.1 1.1 2.2 2.3 5.5.4 8-1.2 1.5-3 2.2-4.7 2.7-3.6 1.1-6.8 1.6-9.8 1.6z" fill="#0366d6" id="path984"/><path d="m483.5 102.1h.5l.6-2.7h-1.7z" fill="#c8e1ff" id="path986"/><path d="m503.7 102.1h.5l.6-2.7h-1.7z" fill="#f6f8fa" id="path988"/><path d="m513.8 103.4h.5l.5-2.7h-1.5zm10.1-6.5h.5l.6-2.7h-1.7zm-27.8 6.1h-4.4l1.1-5h2.2z" fill="#c8e1ff" id="path990"/><g fill="#0366d6" id="g1014"><path d="m489.2 165.9c-5.8.0-11.5-1.3-16.7-3.8-9.4-4.5-14.5-9.8-17.1-13.4-3.2-4.5-4.5-9-3.4-12.1.7-1.9 2.5-3.1 4-4.1.9-.6 1.8-1.2 1.9-1.6.2-.6.4-2.6.6-4.7.3-3.3.7-7.9 1.7-12.1 1.7-7.3 10.7-18.5 29-19.8h.7c-.7-2.3-1.3-4-1.5-4.3l.6-.3.8-.8c.7.7 5.1 13.6 3.2 18l-1.5-.7c.9-2 0-6.5-1-10.3h-1.1c-9.1.6-24.6 6.2-27.4 18.4-1 4.2-1.4 8.6-1.7 11.9-.3 2.9-.4 4.5-.8 5.2-.4.9-1.4 1.6-2.5 2.4-1.3.9-2.8 1.9-3.3 3.3-.9 2.5.3 6.6 3.1 10.6 2.5 3.5 7.4 8.6 16.4 12.9 7.7 3.7 16.5 4.6 24.8 2.5l.4 1.6c-3 .9-6.1 1.2-9.2 1.2zm18.2-4.8-.9-1.4c7.3-4.4 12.7-11.6 15.7-20.8 4.5-13.7-2.5-33.2-21.6-40.9l.6-1.6c15.6 6.2 28.6 24.4 22.6 42.9-3.1 9.7-8.8 17.3-16.4 21.8z" id="path992"/><path d="m503.7 103.3c-3.6-7.8-8.9-12-12.2-13.2-1.1-.4-1.8-.4-1.9-.3-.6.3-.7.7-.7 2.2.0.9.0 2.1-.3 3.5l-1.7-.3c.2-1.3.2-2.3.2-3.1.0-1.5.0-2.9 1.6-3.7 1-.5 2.3-.1 3.3.2 3.9 1.4 9.4 5.8 13.2 14.1z" id="path994"/><path d="m480.7 96.3c-.2-1.9.7-6.3 1.8-7.7.3-.4.6-.6 1-.6 1.8-.2 4 2.8 5 4.9l-1.6.7c-.9-2.1-2.5-3.7-3.1-3.9-.7.7-1.6 4.6-1.4 6.5z" id="path996"/><path d="m483.8 95.4c-.3-2.1-.7-3.9-1.3-5.6l1.6-.5c.6 1.7 1 3.6 1.3 5.8zm-29.4 40.2c-1.3-.3-1.7-1-1.9-1.5-.3-.9.1-1.9 1.1-2.9 1-.9 1.8-.9 2.3-.7.7.2 1.3.9 1.5 1.9l-1.6.4c-.1-.5-.3-.7-.4-.7-.1.0-.3.0-.6.3-.6.6-.7 1.1-.7 1.2s.2.2.6.3zm13.7 22.6c-2.1.0-4.3-.7-6.1-2.2l1.1-1.3c2.7 2.2 6.5 2.4 9.3.5 1-.7 1.8-1.5 2.2-2.4 1.6-2.9 1-5.9.5-8.9-.3-1.8-.7-3.5-.5-5.1.5-3.8 1.8-6.3 4.1-10.3l1.2-2.1c2.7-4.8 6.7-12 1.9-16.9-2.3-2.4-5.6-2.7-7.9-2.5-4.6.4-9.6 2.9-11.6 5.9l-1.4-.9c2.3-3.4 7.7-6.2 12.8-6.6 3.9-.3 7.1.7 9.3 3 5.6 5.8 1 14-1.7 18.9l-1.2 2.1c-2.2 4-3.5 6.3-3.9 9.7-.2 1.3.1 2.9.5 4.6.6 3.1 1.3 6.6-.7 10-.6 1.1-1.5 2.1-2.8 3-1.4.9-3.2 1.5-5.1 1.5zm18.2-12.1-.9-1.4c6.3-3.8 15.6-5.8 19.7-5.7v1.7c-4-.1-13 1.9-18.8 5.4zm14.6 4.6c-1.8-1.7-10-2.1-13.5-.6l-.7-1.6c3.8-1.6 12.8-1.4 15.3 1z" id="path998"/><path d="m501.4 150.9c-.2.0-.4-.1-.6-.2-.9-.8-3.4-1.4-6.4-1.5-.5.0-.8-.4-.8-.9s.4-.8.9-.8c1.3.0 5.7.3 7.4 1.9.3.3.4.8.1 1.2-.1.3-.4.3-.6.3zm-6.8-8.5c-.4.0-.7-.2-.8-.6s.1-.9.5-1.1c3.5-1.1 7.1-1.7 10.7-1.8.5.0.9.4.9.8.0.5-.4.9-.8.9-3.5.1-7 .7-10.3 1.8zm-1.6 68.1h-27v-1.7h27c7.4.0 12.7-6.8 16.6-11.8 4.9-6.1 8.9-12.7 5.6-20-3.3-7.4-7.1-13.9-11.5-19.9-.8-1.2-1.8-2.3-3.1-3.1-1.1-.6-2.4-.5-3.3.3-.8.8-.8 2.3-.1 4.5s1.4 4.3 2.1 6.3c.7 2.1 1.5 4.2 2.2 6.4.2.5.4 1.1.6 1.7 1.2 3.2 2.7 7.6 1 10.5-2.7 4.7-6.6 8.6-11.4 11.1l-.8-1.5c4.5-2.4 8.3-6 10.8-10.5 1.3-2.2-.1-6.2-1.2-9.1l-.6-1.8c-.6-2.1-1.4-4.3-2.1-6.3-.7-2.1-1.5-4.2-2.2-6.4-.9-2.8-.8-4.9.5-6.2 1.5-1.4 3.6-1.6 5.3-.6 1.5 1 2.7 2.2 3.6 3.6 4.5 6.1 8.3 12.7 11.7 20.2 3.7 8.2-.9 15.6-5.8 21.8-4 5.4-9.6 12.5-17.9 12.5z" id="path1000"/><path d="m466.3 205-1.6-.6c2.1-5.4 5.4-9.1 10.3-11.6 5.2-2.7 11.3-2.8 16.6-.1 2.5 1.3 4.1 3.1 4.5 5.2l-1.6.4c-.5-2-2.3-3.3-3.7-4-4.8-2.4-10.3-2.4-15 .1-4.6 2.2-7.5 5.5-9.5 10.6z" id="path1002"/><path d="m467 210.5c-1.5.0-2.8-.6-4.2-1.3-1.4-.7-3.7-1.9-3.8-4.2.0-.8.3-1.5.7-1.9l.1-.1c1-.7 2.3-.4 3.1-.2 2.1.6 4 1.5 5.9 2.7.5.3 1 .6 1.5 1 1.9 1.3 3.8 2.4 5.8 2.3l.1 1.7c-2.6.2-4.7-1.2-6.8-2.6l-1.5-.9c-1.7-1.1-3.5-2-5.4-2.5-.6-.2-1.2-.3-1.6-.1-.1.1-.2.4-.2.7.1 1.2 1.4 2 2.9 2.8 1.4.6 2.7 1.3 4 1l.3 1.7c-.3-.1-.6-.1-.9-.1zm88.3 37.1c-17.8-15.2-32-33.5-42-54.4l1.5-.7c9.9 20.7 23.9 38.8 41.6 53.8z" id="path1004"/><path d="m551.6 254.8c-1.7.0-3.5-.1-5.2-.3-.4.0-.7-.2-.9-.3l-.3-.1-.1-.3c-.1-.2-.3-.6-.3-1-.2-2.4.8-4.7 2.8-6.2 1.7-1.1 3.7-1.6 5.7-1.4 1.7.2 3.5.7 5.4 1.5l-.6 1.6c-1.8-.7-3.4-1.2-5-1.3-1.6-.2-3.2.2-4.5 1.1-1.5 1.1-2.3 2.9-2.1 4.7 7 .9 14-.1 20.3-2.7.4-5.1-2.3-10.2-4.9-14.5-5.1-8.5-10.8-16.8-17-24.5l1.3-1.1c6.3 7.8 12.1 16.1 17.2 24.7 2.8 4.7 5.7 10.2 5.1 16l-.1.5-.4.2c-5.2 2.2-10.7 3.4-16.4 3.4z" id="path1006"/><path d="m560.6 215.2c-5.7.0-11.6-1.6-17.1-4.8-11.1-6.3-20.6-16.1-27.6-23.9l1.3-1.1c6.9 7.7 16.3 17.3 27.2 23.5 10.9 6.2 22.8 6 32.7-.5.3-.2.7-.2 1 0 .8.6 1.7 1.1 3 1.6h.1c4.9 2.5 12 2.4 18.1-.1.4-.2.8.0 1 .3.5.8 1.5 1.2 2.4 1.1.4-.1.8-.3 1.1-.6.1-.2.2-.5.3-1-.1-.3-.2-.6-.4-.9-6.6-11.1-13.3-17.9-21.1-21.5-2.4-1.1-5.8-2.1-8-.4-.8.6-1.4 1.5-2.1 2.5-.3.4-.6.8-.8 1.2-4.4 6.1-12.9 7.4-19.4 5.9-7-1.6-13-5.9-18.1-9.8-10.1-7.5-20.3-16-27.3-27l1.4-.9c6.8 10.8 17 19.2 26.9 26.6 5 3.8 10.9 7.9 17.5 9.5 5.9 1.3 13.6.2 17.6-5.3.3-.4.6-.8.8-1.1.7-1 1.4-2 2.5-2.8 2.9-2.2 6.9-1.1 9.8.2 8.1 3.8 15 10.8 21.8 22.1.3.5.6 1 .7 1.6v.2c0 .6-.1 1.5-.7 2.2-.6.6-1.3 1-2.1 1.1-1.4.1-2.7-.4-3.6-1.3-6.3 2.5-13.7 2.4-18.9-.1-1.2-.4-2.2-.9-3-1.5-5.4 3.3-11.1 5-17 5z" id="path1008"/><path d="m543.7 190c-2 0-3.9-.1-5.8-.3l.2-1.7c4.8.6 9.7.4 14.8-.5 3.1-.5 5.7-1.2 8.1-2.2 3.8-1.5 7.3-3.9 10.7-6.2 1.7-1.1 3.4-2.3 5.2-3.4 7-4.2 12.9-5.8 18.3-4.8 1.7.2 3.3.9 4.9 2.1.4.3.7.6 1 1 .6.6 1.1 1.2 1.8 1.4.7.2 1.4-.2 1.8-.4.8-.6 1.4-1.5 1.4-2.4.1-1.6-.6-3.3-2.3-5.2-2.7-3-5.8-5.4-9.2-7-3.5-1.7-7.2-2.7-11.2-2.9-7.9-.4-15.5 1.7-22.1 6.2-2.1 1.3-4.1 2.9-6 4.5-4.9 3.9-10 7.8-16.4 8.6-4.8.6-10.3-.8-16.1-4.3-2.5-1.5-4.9-3.2-7.2-4.9-2.1-1.5-4.2-3.1-6.4-4.4l.9-1.4c2.3 1.4 4.4 3 6.6 4.5 2.3 1.6 4.6 3.3 7 4.8 5.5 3.3 10.6 4.7 15.1 4.1 5.9-.7 10.6-4.4 15.5-8.2 2-1.6 4-3.2 6.1-4.5 6.9-4.6 14.9-6.8 23.1-6.4 4.2.2 8.2 1.2 11.8 3.1 3.6 1.7 6.9 4.2 9.8 7.4 2 2.3 2.9 4.4 2.7 6.4-.1 1.4-.9 2.8-2.1 3.7-1 .7-2.2 1-3.3.6-1.1-.3-1.9-1.2-2.5-1.9-.3-.3-.5-.6-.8-.8-1.2-.9-2.6-1.5-4-1.7-5-.9-10.6.6-17.2 4.6-1.7 1-3.4 2.2-5.1 3.3-3.5 2.3-7.1 4.8-11 6.4-2.6 1-5.3 1.8-8.5 2.3-3.3.2-6.5.5-9.6.5zm-88-40.8c-5.5-.9-10.5-3.4-14.8-5.7-28.2-15.1-49.6-33.9-63.5-55.8-1.3-1.7-1.6-3.3-.9-4.5.8-1.7 3-2.3 5.9-1.4 8.6 2.5 16.2 7.7 23.9 13.2 13.9 10 28 21.4 41.9 33.8l.4.3c1.5 1.2 3 2.5 4.8 3.1l-.5 1.6c-2.1-.7-3.7-2.1-5.4-3.4l-.4-.3c-13.9-12.3-27.9-23.7-41.8-33.7-7.5-5.5-15-10.6-23.3-13-.5-.2-3.2-.9-3.9.5-.3.7-.1 1.6.8 2.8 13.8 21.7 35 40.3 62.9 55.3 4.1 2.2 9 4.7 14.2 5.5z" id="path1010"/><path d="m414.8 116.7c-2.3.0-6.4-2.1-10.5-5.6-4.3-3.6-7.3-7.5-7.5-9.8-.1-.8.2-1.3.5-1.6.2-.3.7-.7 1.5-.7 2.3-.2 6.6 2 10.9 5.6 4.3 3.6 7.3 7.5 7.4 9.8.1.8-.2 1.3-.4 1.6s-.7.7-1.5.7zm-15.6-16H399c-.1.0-.3.0-.4.1-.1.1-.1.2-.1.4.1 1.5 2.6 5 6.9 8.6 4.4 3.6 8.2 5.3 9.6 5.2.1.0.3.0.4-.1.1-.1.1-.2.0-.4-.1-1.5-2.6-5-6.9-8.6-4-3.5-7.7-5.2-9.3-5.2zm43.2 37.3c-2.7.0-7-2.1-10.6-4.4-4.6-3.2-7.9-6.7-8.3-9-.2-.8.1-1.4.3-1.7 1.7-2.4 7.9.1 12.9 3.6 4.6 3.1 7.9 6.5 8.3 8.8.2.8-.1 1.4-.3 1.7-.5.7-1.3 1-2.3 1zM426 123.6c-.4.0-.7.1-.8.3-.1.1-.1.3.0.5.3 1.5 3 4.7 7.6 7.9 6 3.9 10 4.6 10.5 3.9.1-.1.1-.3.0-.5-.3-1.5-3-4.7-7.6-7.8-4.5-3.1-8.1-4.3-9.7-4.3zm127.6 59.1c-1.7.0-3-.4-3.4-1.5-1.1-2.6 3.9-6.3 9.3-8.6 4.9-2.1 9.4-2.8 11.5-2 .8.3 1.1.8 1.2 1.2 1.1 2.6-3.9 6.3-9.3 8.6-3.2 1.3-6.8 2.3-9.3 2.3zM568.8 172c-1.9.0-5 .7-8.7 2.2-6.2 2.7-8.7 5.7-8.4 6.4.4.8 4.4.9 10.5-1.8 6.2-2.7 8.7-5.7 8.5-6.4.0-.1-.1-.2-.3-.2-.4-.2-.9-.2-1.6-.2zm-33.9 15.2v-1.7c4.6-.1 6.7-.9 6.9-1.3-.1-.6-3.8-2.4-10.1-3-1.9-.2-3.6-.3-5.1-.2l-.1-1.7c1.6-.1 3.4.0 5.3.2 4.1.4 11.7 1.9 11.5 4.9.0 2.3-5.3 2.8-8.4 2.8zm55.4-18.7c-1.7.0-3.3-.1-4.4-.3-5.8-.7-10-1.2-9.8-3.6.0-.4.2-1 .9-1.6 1.6-1.4 5.5-2.5 9.9-1.9 4.6.6 10 2.3 9.8 4.9v.1c-.3 1.9-3.4 2.4-6.4 2.4zm-5.9-5.8c-3 0-5.4.8-6.3 1.6-.3.3-.3.4-.3.4-.1.9 5.8 1.6 8.4 1.9 6 .7 8.7-.2 8.9-.6.0-.6-2.6-2.3-8.4-3.1-.9-.2-1.6-.2-2.3-.2z" id="path1012"/></g></g></svg>